<?xml version="1.0" encoding="utf-8"?>
<!-- Generator: Adobe Illustrator 27.5.0, SVG Export Plug-In . SVG Version: 6.00 Build 0)  -->
<svg version="1.1" xmlns="http://www.w3.org/2000/svg" xmlns:xlink="http://www.w3.org/1999/xlink" x="0px" y="0px"
	 viewBox="0 0 750 500" style="enable-background:new 0 0 750 500;" xml:space="preserve">
<g id="BACKGROUND_1_">
	<g>
		<rect style="fill:#2D2D3C;" width="750" height="500"/>
		<path style="fill:#FFFFFF; " d="M315.079,69.641c17.683,0.002,41.078-2.57,46.853-2.049c5.675,0.512,27.213-4.333,12.144-7.943
			c-5.131-1.229-10.661-0.636-15.883-0.636c-12.859,0-9.122-17.709-26.917-6.025c-13.764,9.037-8.552-7.363-24.692,1.673
			c-2.423,1.357-13.555,6.542-12.238,10.684C295.398,68.654,304.147,69.64,315.079,69.641z"/>
		<path style="fill:#FFFFFF;" d="M539.857,75.759c17.683,0.002,71.524-0.521,77.299,0c22.226,0.018,3.332-10.257-17.023-6.066
			c-13.075,2.692-6.454-6.894-19.475-5.255c-12.758,1.606-6.809-17.016-24.604-5.333c-13.764,9.037-8.552-7.363-24.692,1.673
			c-2.423,1.357-13.555,6.542-12.238,10.684C520.176,74.772,528.925,75.757,539.857,75.759z"/>
		<path style="fill:#FFFFFF;" d="M265.432,39.969c0.678,2.901,8.807,0.466,11.847,1.44c3.04,0.974,12.501-0.409,16.035,0.264
			c15.218,2.901,17.84-2.943,10.897-2.699c-4.752,0.167-5.698-8.036-11.936-4.87c-6.238,3.165-7.477-6.331-13.529-1.461
			S266.14,33.658,265.432,39.969z"/>
		<path style="opacity:0.4;fill:#FBD3D6;" d="M233.15,456.957c-0.019,1.346-9.95,2.802-19.577,2.545
			c-6.054-0.162-5.925-0.84-13.021-1.149c-7.744-0.338-8.923,0.424-18.957,0.383c-5.425-0.022-15.829-0.066-16.042-1.779
			c-0.019-0.155,0.012-0.593,1.297-1.285c6.494-3.497,20.542-0.307,32.745-0.383c9.953-0.062,14.803-2.272,26.617-0.383
			C228.347,455.248,233.163,456.018,233.15,456.957z"/>
		<path style="opacity:0.4;fill:#FBD3D6;" d="M471.013,456.957c-0.019,1.346-9.95,2.802-19.577,2.545
			c-6.054-0.162-5.925-0.84-13.021-1.149c-7.744-0.338-8.923,0.424-18.957,0.383c-5.425-0.022-15.829-0.066-16.041-1.779
			c-0.019-0.155,0.012-0.593,1.297-1.285c6.494-3.497,20.542-0.307,32.745-0.383c9.953-0.062,14.803-2.272,26.617-0.383
			C466.21,455.248,471.026,456.018,471.013,456.957z"/>
		<path style="opacity:0.4;fill:#FBD3D6;" d="M592.227,456.957c-0.019,1.346-9.95,2.802-19.577,2.545
			c-6.054-0.162-5.925-0.84-13.021-1.149c-7.744-0.338-8.923,0.424-18.957,0.383c-5.425-0.022-15.829-0.066-16.041-1.779
			c-0.019-0.155,0.012-0.593,1.297-1.285c6.494-3.497,20.542-0.307,32.745-0.383c9.953-0.062,14.803-2.272,26.617-0.383
			C587.424,455.248,592.241,456.018,592.227,456.957z"/>
		<path style="opacity:0.4;fill:#FBD3D6;" d="M380.411,457.07c-0.031,2.212-16.353,4.606-32.176,4.183
			c-9.95-0.266-9.737-1.38-21.401-1.888c-12.728-0.555-14.665,0.698-31.157,0.63c-8.915-0.037-26.015-0.108-26.365-2.924
			c-0.032-0.256,0.02-0.975,2.131-2.112c10.673-5.747,33.762-0.505,53.817-0.629c16.359-0.102,24.329-3.735,43.746-0.629
			C372.517,454.261,380.433,455.527,380.411,457.07z"/>
		<path style="fill:#FFFFFF;" d="M136.686,437.312h43.004c0,0,0.506-13.472-11.103-11.895c1.343-9.85-10.442-14.829-17.763-10.616
			c-1.576-9.574-16.842-6.511-18.4,0.766c-8.452-5.745-18.205,0.793-17.35,7.482c-11.4-3.652-14.894,3.369-11.807,9.595
			c-12.587-1.699-11.977,6.226-11.977,6.226l88.399-1.557"/>
		<path style="fill:#3D7BA5;" d="M127.096,440.342c0,0-1.905-19.195-13.999-12.557s-18.061-7.574-23.539,0.874
			c-8.936,13.779-11.515,2.51-13.249,11.668c13.249,0,13.249,0,13.249,0"/>
		<path style="fill:#F26D76;" d="M97.505,443.111h105.278c0,0-2.446-24.204-25.16-14.204c-18.956,8.346-26.786-5.058-36.409,3.262
			C131.59,440.49,102.484,427.733,97.505,443.111z"/>
		<path style="fill:#40B7D6;" d="M657.077,437.791h-37.072c0,0-0.436-11.607,9.571-10.249c-1.157-8.487,9.002-12.776,15.312-9.147
			c1.358-8.249,14.519-5.609,15.862,0.66c7.286-4.949,15.694,0.683,14.957,6.446c9.828-3.146,12.84,2.902,10.178,8.267
			c10.851-1.463,10.325,5.364,10.325,5.364l-76.206-1.341"/>
		<path style="fill:#40B7D6;" d="M395.029,437.791h-37.072c0,0-0.436-11.607,9.571-10.249c-1.157-8.487,9.002-12.776,15.312-9.147
			c1.358-8.249,14.519-5.609,15.862,0.66c7.286-4.949,15.694,0.683,14.957,6.446c9.828-3.146,12.84,2.902,10.178,8.267
			c10.851-1.463,10.325,5.364,10.325,5.364l-76.206-1.341"/>
		<path style="fill:#FCC130;" d="M627.122,436.892c0,0,18.157-5.927,27.521-35.844c-16.349,9.156-25.499,24.424-25.499,24.424
			s20.601-26.572,14.201-45.99c-16.088,14.758-21.422,42.747-21.422,42.747s7.181-35.199-4.88-48.52
			c-10.809,16.594-2.147,48.003-2.147,48.003s-2.154-29.709-15.951-37.739c-1.551,21.93,9.267,44.427,9.267,44.427L627.122,436.892z
			"/>
		<path style="fill:#F26D76;" d="M651.211,443.111H493.094c0,0,8.671-10.355,33.663-6.7c30.013,4.389,18.913-16.687,50.049-9.715
			C607.943,433.668,649.919,404.579,651.211,443.111z"/>
		<path style="fill:#FBD3D6;" d="M633.121,444.379c0,0,4.926-4.311,1.642-12.379c-4.515,3.007-3.466,8.143-3.466,8.143
			s-1-9.648-7.386-11.699c-0.64,6.974,0,14.267,0,14.267s-0.735-7.565-6.024-10.711c-0.773,5.469,0,12.379,0,12.379H633.121z"/>
		<g>
			<path style="fill:#FCC130;" d="M551.13,135.724c1.603-1.603,3.319-3.024,5.113-4.283l-17.26-24.65
				c-3.205,2.25-6.27,4.787-9.134,7.652c-2.864,2.864-5.402,5.929-7.652,9.134l24.65,17.26
				C548.106,139.042,549.527,137.327,551.13,135.724z"/>
			<path style="fill:#66C5DE;" d="M540.074,166.116l-29.978,2.623c1.344,15.46,7.921,30.55,19.753,42.382l21.281-21.281
				C544.508,183.216,540.826,174.77,540.074,166.116z"/>
			<path style="fill:#66C5DE;" d="M546.847,140.837l-24.65-17.26c-9.426,13.429-13.465,29.481-12.101,45.162l29.978-2.623
				C539.31,157.339,541.571,148.354,546.847,140.837z"/>
			<path style="fill:#FCC130;" d="M581.522,124.668l2.623-29.978c-15.681-1.364-31.733,2.675-45.162,12.101l17.26,24.65
				C563.76,126.165,572.745,123.904,581.522,124.668z"/>
			<path style="fill:#44667A;" d="M605.245,135.724l21.281-21.281c-11.832-11.832-26.922-18.408-42.382-19.752l-2.623,29.978
				C590.176,125.42,598.623,129.101,605.245,135.724z"/>
			<path style="fill:#F58A91;" d="M551.13,189.839l-21.281,21.281c11.832,11.832,26.922,18.408,42.382,19.753l2.623-29.978
				C566.2,200.143,557.753,196.462,551.13,189.839z"/>
			<path style="fill:#F58A91;" d="M605.245,189.839c-1.603,1.603-3.319,3.024-5.113,4.283l17.26,24.65
				c3.205-2.25,6.27-4.787,9.134-7.652c2.864-2.864,5.402-5.929,7.652-9.134l-24.65-17.26
				C608.269,186.52,606.849,188.236,605.245,189.839z"/>
			<path style="fill:#44667A;" d="M605.245,135.724c6.623,6.623,10.304,15.069,11.056,23.723l29.978-2.623
				c-1.344-15.46-7.921-30.55-19.753-42.382L605.245,135.724z"/>
			<path style="fill:#F58A91;" d="M609.528,184.726l24.65,17.26c9.426-13.429,13.465-29.481,12.101-45.162l-29.978,2.623
				C617.065,168.224,614.804,177.209,609.528,184.726z"/>
			<path style="fill:#F58A91;" d="M574.853,200.895l-2.623,29.978c15.681,1.364,31.733-2.675,45.162-12.101l-17.26-24.65
				C592.616,199.398,583.631,201.659,574.853,200.895z"/>
			
				<rect x="578.188" y="162.781" transform="matrix(0.7071 -0.7071 0.7071 0.7071 54.2434 456.518)" style="fill:#66C5DE;" width="0" height="0"/>
			<rect x="578.188" y="162.781" style="fill:#66C5DE;" width="0" height="0"/>
			<rect x="578.188" y="162.781" style="fill:#66C5DE;" width="0" height="0"/>
			<polygon style="fill:#66C5DE;" points="578.188,162.781 578.188,162.781 578.188,162.781 			"/>
			<polygon style="fill:#66C5DE;" points="578.188,162.781 578.188,162.781 578.188,162.781 			"/>
			<polygon style="fill:#66C5DE;" points="578.188,162.781 578.188,162.781 578.188,162.781 			"/>
		</g>
		<g>
			<path style="fill:#FCC130;" d="M188.465,146.331c-2.267,0-4.485-0.208-6.644-0.587l-5.225,29.635
				c3.857,0.676,7.818,1.048,11.869,1.048c4.051,0,8.012-0.372,11.869-1.048l-5.225-29.635
				C192.95,146.123,190.732,146.331,188.465,146.331z"/>
			<path style="fill:#66C5DE;" d="M217.773,132.659l23.052,19.343c9.981-11.882,16.001-27.203,16.001-43.936H226.73
				C226.73,117.432,223.36,126.008,217.773,132.659z"/>
			<path style="fill:#66C5DE;" d="M195.109,145.745l5.225,29.635c16.161-2.831,30.367-11.326,40.491-23.378l-23.052-19.343
				C212.106,139.405,204.155,144.16,195.109,145.745z"/>
			<path style="fill:#FCC130;" d="M159.156,132.659l-23.052,19.343c10.124,12.052,24.33,20.547,40.491,23.378l5.225-29.635
				C172.775,144.16,164.823,139.405,159.156,132.659z"/>
			<path style="fill:#154059;" d="M150.2,108.066h-30.097c0,16.732,6.02,32.053,16.001,43.936l23.052-19.343
				C153.57,126.008,150.2,117.432,150.2,108.066z"/>
			<path style="fill:#66C5DE;" d="M226.73,108.066h30.097c0-16.732-6.02-32.053-16.001-43.936l-23.052,19.343
				C223.36,90.124,226.73,98.7,226.73,108.066z"/>
			<path style="fill:#F58A91;" d="M188.465,69.801c2.267,0,4.485,0.208,6.644,0.587l5.225-29.635
				c-3.857-0.676-7.819-1.048-11.869-1.048c-4.051,0-8.012,0.372-11.869,1.048l5.225,29.635
				C183.98,70.009,186.197,69.801,188.465,69.801z"/>
			<path style="fill:#154059;" d="M150.2,108.066c0-9.366,3.37-17.942,8.957-24.593l-23.052-19.343
				c-9.981,11.882-16.001,27.203-16.001,43.936H150.2z"/>
			<path style="fill:#F58A91;" d="M181.821,70.388l-5.225-29.635c-16.161,2.831-30.367,11.326-40.491,23.378l23.052,19.343
				C164.823,76.727,172.775,71.972,181.821,70.388z"/>
			<path style="fill:#66C5DE;" d="M217.773,83.473l23.052-19.343c-10.124-12.053-24.33-20.547-40.491-23.378l-5.225,29.635
				C204.155,71.972,212.106,76.727,217.773,83.473z"/>
			<rect x="188.465" y="108.066" style="fill:#66C5DE;" width="0" height="0"/>
			<rect x="188.465" y="108.066" style="fill:#66C5DE;" width="0" height="0"/>
			<rect x="188.465" y="108.066" style="fill:#66C5DE;" width="0" height="0"/>
			<polygon style="fill:#66C5DE;" points="188.465,108.066 188.465,108.066 188.465,108.066 			"/>
			<polygon style="fill:#66C5DE;" points="188.465,108.066 188.465,108.066 188.465,108.066 			"/>
			<polygon style="fill:#66C5DE;" points="188.465,108.066 188.465,108.066 188.465,108.066 			"/>
		</g>
		<g>
			<path style="fill:#66C5DE;" d="M120.835,214.133l6.644-37.679c-2.159-0.378-4.376-0.587-6.644-0.587
				c-2.267,0-4.485,0.208-6.644,0.587L120.835,214.133L120.835,214.133z"/>
			<path style="fill:#66C5DE;" d="M120.835,214.133l29.309-24.593c-5.667-6.746-13.619-11.501-22.665-13.086L120.835,214.133
				L120.835,214.133z"/>
			<path style="fill:#F58A91;" d="M120.835,214.133l-6.644,37.678c2.159,0.378,4.376,0.587,6.644,0.587
				c2.267,0,4.485-0.208,6.644-0.587L120.835,214.133L120.835,214.133z"/>
			<path style="fill:#FCC130;" d="M150.144,238.725c5.587-6.651,8.957-15.227,8.957-24.593h-38.265L150.144,238.725z"/>
			<path style="fill:#6495B7;" d="M114.191,176.454c-9.046,1.585-16.998,6.34-22.665,13.086l29.308,24.593L114.191,176.454z"/>
			<path style="fill:#66C5DE;" d="M120.835,214.133L120.835,214.133l38.265,0c0-9.366-3.37-17.942-8.957-24.593L120.835,214.133z"/>
			<path style="fill:#F58A91;" d="M120.835,214.133l6.644,37.678c9.046-1.585,16.998-6.339,22.665-13.086L120.835,214.133
				L120.835,214.133z"/>
			<path style="fill:#6495B7;" d="M120.835,214.133L120.835,214.133L120.835,214.133L91.527,189.54
				c-5.587,6.651-8.957,15.227-8.957,24.593H120.835L120.835,214.133z"/>
			<path style="fill:#6495B7;" d="M82.57,214.133c0,9.366,3.37,17.942,8.957,24.593l29.308-24.593H82.57z"/>
			<path style="fill:#F58A91;" d="M114.835,224.133l-29.308,24.593c5.667,6.746,13.619,11.501,22.665,13.086L114.835,224.133
				L114.835,224.133z"/>
		</g>
		<g>
			<path style="fill:#66C5DE;" d="M442.077,90.031l6.644-37.678c-2.159-0.378-4.376-0.587-6.644-0.587s-4.485,0.208-6.644,0.587
				L442.077,90.031L442.077,90.031z"/>
			<path style="fill:#66C5DE;" d="M442.077,90.031l29.308-24.593c-5.667-6.746-13.619-11.501-22.665-13.086L442.077,90.031
				L442.077,90.031z"/>
			<path style="fill:#FFFFFF;" d="M442.077,90.031l-6.644,37.679c2.159,0.378,4.376,0.587,6.644,0.587s4.485-0.208,6.644-0.587
				L442.077,90.031L442.077,90.031z"/>
			<path style="fill:#FCC130;" d="M483.386,113.624c5.587-6.651,8.957-15.227,8.957-24.593h-38.265L483.386,113.624z"/>
			<path style="fill:#1A445C;" d="M435.434,52.353c-9.046,1.585-16.998,6.339-22.665,13.086l29.309,24.593L435.434,52.353z"/>
			<path style="fill:#FCC130;" d="M454.077,89.031L454.077,89.031h38.265c0-9.366-3.37-17.942-8.957-24.593L454.077,89.031z"/>
			<path style="fill:#FFFFFF;" d="M442.077,90.031l6.644,37.679c9.046-1.585,16.998-6.339,22.665-13.086L442.077,90.031
				L442.077,90.031z"/>
			<path style="fill:#1A445C;" d="M442.077,90.031L442.077,90.031L442.077,90.031l-29.309-24.593
				c-5.587,6.651-8.957,15.227-8.957,24.593H442.077L442.077,90.031z"/>
			<path style="fill:#6495B7;" d="M403.812,90.031c0,9.366,3.37,17.942,8.957,24.593l29.309-24.593H403.812z"/>
			<path style="fill:#F58A91;" d="M442.077,90.031l-29.309,24.593c5.667,6.746,13.619,11.501,22.665,13.086L442.077,90.031
				L442.077,90.031z"/>
		</g>
		<path style="fill:#FCC130;" d="M145.451,445.916c0,0-3.609-3.16-1.203-9.076c3.309,2.205,2.54,5.971,2.54,5.971
			s0.732-7.074,5.413-8.578c0.469,5.113,0,10.461,0,10.461s0.539-5.547,4.414-7.853c0.567,4.01,0,9.076,0,9.076H145.451z"/>
	</g>
</g>
<g id="OBJECTS">
	<g>
		<g>
			<path style="fill:#FCCA4F;" d="M293.264,75.14c-11.405,0-20.65,9.246-20.65,20.651c0,11.405,9.245,20.651,20.65,20.651
				c11.405,0,20.651-9.246,20.651-20.651C313.915,84.385,304.669,75.14,293.264,75.14z M293.264,101.549
				c-3.181,0-5.759-2.578-5.759-5.759c0-3.181,2.579-5.759,5.759-5.759s5.759,2.579,5.759,5.759
				C299.024,98.971,296.445,101.549,293.264,101.549z"/>
			<path style="fill:#C38E80;" d="M386.691,428.561H201.252c-6.118,0-11.078-4.96-11.078-11.078V134.561
				c0-6.118,4.96-11.078,11.078-11.078h185.439c6.118,0,11.078,4.96,11.078,11.078v282.921
				C397.769,423.601,392.81,428.561,386.691,428.561z"/>
			<path style="fill:#AA5D49;" d="M384.982,428.561H199.543c-6.118,0-11.078-4.96-11.078-11.078V134.561
				c0-6.118,4.96-11.078,11.078-11.078h185.439c6.118,0,11.078,4.96,11.078,11.078v282.921
				C396.06,423.601,391.101,428.561,384.982,428.561z"/>
			
				<rect x="201.555" y="135.92" transform="matrix(0.9997 0.0237 -0.0237 0.9997 6.6145 -6.8397)" style="fill:#E3EFFF;" width="181.416" height="280.203"/>
			<rect x="199.846" y="133.357" style="fill:#FFFFFF;" width="181.416" height="280.203"/>
			
				<rect x="201.555" y="135.92" transform="matrix(0.9986 -0.0529 0.0529 0.9986 -14.204 15.8609)" style="fill:#D0DAE9;" width="181.416" height="280.203"/>
			<rect x="201.555" y="135.92" style="fill:#FFFFFF;" width="181.416" height="280.203"/>
			<polygon style="fill:#FCCA4F;" points="352.246,148.79 232.279,148.79 240.824,123.483 343.701,123.483 			"/>
			<path style="fill:#FCC130;" d="M326.466,106.248h-68.407c-9.519,0-17.235,7.716-17.235,17.235v0h102.877v0
				C343.701,113.965,335.985,106.248,326.466,106.248z"/>
			
				<line style="fill:none;stroke:#0C1153;stroke-width:0.4252;stroke-miterlimit:10;" x1="233.753" y1="144.428" x2="350.773" y2="144.428"/>
			
				<line style="fill:none;stroke:#0C1153;stroke-width:0.4252;stroke-miterlimit:10;" x1="275.46" y1="106.248" x2="311.072" y2="106.248"/>
			<g>
				<g>
					<rect x="236.59" y="179.079" style="fill:none;stroke:#154059;stroke-miterlimit:10;" width="17.09" height="17.09"/>
					<rect x="258.891" y="179.079" style="fill:#BDC9E2;" width="66.423" height="4.021"/>
					<rect x="258.891" y="185.613" style="fill:#BDC9E2;" width="82.263" height="4.021"/>
					<rect x="258.891" y="192.147" style="fill:#BDC9E2;" width="67.643" height="4.021"/>
				</g>
				<g>
					<rect x="236.59" y="214.145" style="fill:none;stroke:#154059;stroke-miterlimit:10;" width="17.09" height="17.09"/>
					<rect x="258.891" y="214.145" style="fill:#BDC9E2;" width="65.767" height="4.021"/>
					<rect x="258.891" y="220.68" style="fill:#BDC9E2;" width="67.599" height="4.021"/>
					<rect x="258.891" y="227.214" style="fill:#BDC9E2;" width="84.928" height="4.021"/>
				</g>
				<g>
					<rect x="236.59" y="249.212" style="fill:none;stroke:#154059;stroke-miterlimit:10;" width="17.09" height="17.09"/>
					<rect x="258.891" y="249.212" style="fill:#BDC9E2;" width="76.058" height="4.021"/>
					<rect x="258.891" y="255.746" style="fill:#BDC9E2;" width="79.736" height="4.021"/>
					<rect x="258.891" y="262.281" style="fill:#BDC9E2;" width="70.563" height="4.021"/>
				</g>
				<g>
					<rect x="236.59" y="284.279" style="fill:none;stroke:#154059;stroke-miterlimit:10;" width="17.09" height="17.09"/>
					<rect x="258.891" y="284.279" style="fill:#BDC9E2;" width="88.524" height="4.021"/>
					<rect x="258.891" y="290.813" style="fill:#BDC9E2;" width="76.202" height="4.021"/>
					<rect x="258.891" y="297.347" style="fill:#BDC9E2;" width="66.86" height="4.021"/>
				</g>
				<g>
					<rect x="236.59" y="319.345" style="fill:none;stroke:#154059;stroke-miterlimit:10;" width="17.09" height="17.09"/>
					<rect x="258.891" y="319.345" style="fill:#BDC9E2;" width="73.966" height="4.021"/>
					<rect x="258.891" y="325.88" style="fill:#BDC9E2;" width="70.132" height="4.021"/>
					<rect x="258.891" y="332.414" style="fill:#BDC9E2;" width="89.044" height="4.021"/>
				</g>
				<polygon style="fill:#6495B7;" points="241.184,183.904 245.135,190.438 262.564,170.643 245.135,185.915 243.365,181.391 				
					"/>
				<polygon style="fill:#6495B7;" points="241.184,219.251 245.135,225.786 262.564,205.99 245.135,221.262 243.365,216.738 				
					"/>
				<polygon style="fill:#6495B7;" points="241.184,254.598 245.135,261.133 262.564,241.338 245.135,256.609 243.365,252.085 				
					"/>
				<polygon style="fill:#6495B7;" points="241.184,289.946 245.135,296.48 262.564,276.685 245.135,291.956 243.365,287.433 				
					"/>
			</g>
		</g>
		<g>
			<path style="fill:#ADBCDB;" d="M560.693,429.372H443.587c-5.311,0-9.617-4.306-9.617-9.617V172.398
				c0-5.311,4.306-9.617,9.617-9.617h117.106c5.311,0,9.617,4.306,9.617,9.617v247.357
				C570.31,425.066,566.005,429.372,560.693,429.372z"/>
			<path style="fill:#D0DAE9;" d="M553.693,429.372H436.587c-5.311,0-9.617-4.306-9.617-9.617V172.398
				c0-5.311,4.306-9.617,9.617-9.617h117.106c5.311,0,9.617,4.306,9.617,9.617v247.357
				C563.31,425.066,559.005,429.372,553.693,429.372z"/>
			<path style="fill:#FFFFFF;" d="M553.949,170.101h-49.489c-1.281,0-2.319,1.038-2.319,2.319v1.715c0,3.866-3.134,7-7,7l0,0
				c-3.866,0-7-3.134-7-7v-1.715c0-1.281-1.038-2.319-2.319-2.319h-49.489c-1.504,0-2.723,1.219-2.723,2.723v246.505
				c0,1.504,1.219,2.723,2.723,2.723h117.617c1.504,0,2.723-1.219,2.723-2.723V172.824
				C556.672,171.32,555.453,170.101,553.949,170.101z"/>
			<path style="fill:#ADBCDB;" d="M497.757,174.797c0,1.507-1.222,2.729-2.729,2.729c-1.507,0-2.729-1.222-2.729-2.729
				c0-1.507,1.222-2.729,2.729-2.729C496.536,172.069,497.757,173.29,497.757,174.797z"/>
			<path style="fill:#D0DAE9;" d="M566.757,231.93L566.757,231.93c-1.053,0-1.915-0.862-1.915-1.915v-25.277
				c0-1.053,0.862-1.915,1.915-1.915l0,0c1.053,0,1.915,0.862,1.915,1.915v25.277C568.672,231.069,567.81,231.93,566.757,231.93z"/>
			<path style="fill:#D0DAE9;" d="M566.757,292.696L566.757,292.696c-1.057,0-1.915-0.857-1.915-1.915v-52.34
				c0-1.058,0.857-1.915,1.915-1.915l0,0c1.058,0,1.915,0.857,1.915,1.915v52.34C568.672,291.839,567.815,292.696,566.757,292.696z"
				/>
			<text transform="matrix(1 0 0 1 439.1118 181.0353)" style="font-family:'Montserrat-Regular'; font-size:8.125px;">11:26am</text>
			<g>
				<path style="fill:none;stroke:#000000;stroke-width:0.5669;stroke-miterlimit:10;" d="M526.472,175.477
					c-1.012-1.067-2.44-1.736-4.027-1.736c-1.587,0-3.015,0.669-4.027,1.736"/>
				<path style="fill:none;stroke:#000000;stroke-width:0.5669;stroke-miterlimit:10;" d="M525.401,176.548
					c-0.738-0.793-1.787-1.293-2.956-1.293c-1.169,0-2.218,0.499-2.956,1.293"/>
				<path style="fill:none;stroke:#000000;stroke-width:0.5669;stroke-miterlimit:10;" d="M520.565,177.624
					c0.463-0.52,1.129-0.854,1.88-0.854c0.75,0,1.417,0.334,1.88,0.854"/>
				<path d="M523.254,178.695c-0.184-0.247-0.476-0.41-0.808-0.41c-0.332,0-0.624,0.163-0.808,0.41
					c-0.125,0.168-0.202,0.374-0.202,0.6c0,0.558,0.452,1.01,1.01,1.01c0.558,0,1.01-0.452,1.01-1.01
					C523.455,179.07,523.379,178.863,523.254,178.695z"/>
			</g>
			<g>
				
					<line style="fill:none;stroke:#000000;stroke-width:0.5669;stroke-miterlimit:10;" x1="529.392" y1="179.172" x2="529.392" y2="180.8"/>
				
					<line style="fill:none;stroke:#000000;stroke-width:0.5669;stroke-miterlimit:10;" x1="531.029" y1="178.418" x2="531.029" y2="180.8"/>
				
					<line style="fill:none;stroke:#000000;stroke-width:0.5669;stroke-miterlimit:10;" x1="532.665" y1="177.664" x2="532.665" y2="180.8"/>
				
					<line style="fill:none;stroke:#000000;stroke-width:0.5669;stroke-miterlimit:10;" x1="534.302" y1="176.91" x2="534.302" y2="180.8"/>
				
					<line style="fill:none;stroke:#000000;stroke-width:0.5669;stroke-miterlimit:10;" x1="535.938" y1="176.156" x2="535.938" y2="180.8"/>
			</g>
			<g>
				<polygon style="fill:none;stroke:#000000;stroke-width:0.5669;stroke-miterlimit:10;" points="551.566,176.545 550.058,176.545 
					550.058,175.614 540.431,175.614 540.431,176.545 540.431,180.363 540.431,181.294 550.058,181.294 550.058,180.363 
					551.566,180.363 				"/>
				
					<line style="fill:none;stroke:#000000;stroke-width:0.5669;stroke-miterlimit:10;" x1="542.366" y1="176.946" x2="542.366" y2="179.962"/>
				
					<line style="fill:none;stroke:#000000;stroke-width:0.5669;stroke-miterlimit:10;" x1="543.778" y1="176.946" x2="543.778" y2="179.962"/>
				
					<line style="fill:none;stroke:#000000;stroke-width:0.5669;stroke-miterlimit:10;" x1="545.19" y1="176.946" x2="545.19" y2="179.962"/>
				
					<line style="fill:none;stroke:#000000;stroke-width:0.5669;stroke-miterlimit:10;" x1="546.602" y1="176.946" x2="546.602" y2="179.962"/>
				
					<line style="fill:none;stroke:#000000;stroke-width:0.5669;stroke-miterlimit:10;" x1="548.014" y1="176.946" x2="548.014" y2="179.962"/>
			</g>
			<g>
				<g>
					
						<rect x="438.03" y="216.337" style="fill:none;stroke:#ADBCDB;stroke-width:0.4252;stroke-miterlimit:10;" width="16.263" height="35.859"/>
					
						<rect x="454.293" y="216.337" style="fill:none;stroke:#ADBCDB;stroke-width:0.4252;stroke-miterlimit:10;" width="16.263" height="35.859"/>
					
						<rect x="470.555" y="216.337" style="fill:none;stroke:#ADBCDB;stroke-width:0.4252;stroke-miterlimit:10;" width="16.262" height="35.859"/>
					
						<rect x="486.818" y="216.337" style="fill:#40B7D6;stroke:#ADBCDB;stroke-width:0.4252;stroke-miterlimit:10;" width="16.263" height="35.859"/>
					
						<rect x="503.08" y="216.337" style="fill:none;stroke:#ADBCDB;stroke-width:0.4252;stroke-miterlimit:10;" width="16.263" height="35.859"/>
					
						<rect x="519.343" y="216.337" style="fill:none;stroke:#ADBCDB;stroke-width:0.4252;stroke-miterlimit:10;" width="16.263" height="35.859"/>
					
						<rect x="535.605" y="216.337" style="fill:none;stroke:#ADBCDB;stroke-width:0.4252;stroke-miterlimit:10;" width="16.263" height="35.859"/>
					<g>
						
							<rect x="438.03" y="252.197" style="fill:#F26D76;stroke:#ADBCDB;stroke-width:0.4252;stroke-miterlimit:10;" width="16.263" height="35.859"/>
						
							<rect x="454.293" y="252.197" style="fill:none;stroke:#ADBCDB;stroke-width:0.4252;stroke-miterlimit:10;" width="16.263" height="35.859"/>
						
							<rect x="470.555" y="252.197" style="fill:none;stroke:#ADBCDB;stroke-width:0.4252;stroke-miterlimit:10;" width="16.262" height="35.859"/>
						
							<rect x="486.818" y="252.197" style="fill:none;stroke:#ADBCDB;stroke-width:0.4252;stroke-miterlimit:10;" width="16.263" height="35.859"/>
						
							<rect x="503.08" y="252.197" style="fill:#FCC130;stroke:#ADBCDB;stroke-width:0.4252;stroke-miterlimit:10;" width="16.263" height="35.859"/>
						
							<rect x="519.343" y="252.197" style="fill:none;stroke:#ADBCDB;stroke-width:0.4252;stroke-miterlimit:10;" width="16.263" height="35.859"/>
						
							<rect x="535.605" y="252.197" style="fill:#40B7D6;stroke:#ADBCDB;stroke-width:0.4252;stroke-miterlimit:10;" width="16.263" height="35.859"/>
					</g>
					<g>
						
							<rect x="438.03" y="288.056" style="fill:none;stroke:#ADBCDB;stroke-width:0.4252;stroke-miterlimit:10;" width="16.263" height="35.859"/>
						
							<rect x="454.293" y="288.056" style="fill:none;stroke:#ADBCDB;stroke-width:0.4252;stroke-miterlimit:10;" width="16.263" height="35.859"/>
						
							<rect x="470.555" y="288.056" style="fill:#FCC130;stroke:#ADBCDB;stroke-width:0.4252;stroke-miterlimit:10;" width="16.262" height="35.859"/>
						
							<rect x="486.818" y="288.056" style="fill:none;stroke:#ADBCDB;stroke-width:0.4252;stroke-miterlimit:10;" width="16.263" height="35.859"/>
						
							<rect x="503.08" y="288.056" style="fill:none;stroke:#ADBCDB;stroke-width:0.4252;stroke-miterlimit:10;" width="16.263" height="35.859"/>
						
							<rect x="519.343" y="288.056" style="fill:#F26D76;stroke:#ADBCDB;stroke-width:0.4252;stroke-miterlimit:10;" width="16.263" height="35.859"/>
						
							<rect x="535.605" y="288.056" style="fill:none;stroke:#ADBCDB;stroke-width:0.4252;stroke-miterlimit:10;" width="16.263" height="35.859"/>
					</g>
					<g>
						
							<rect x="438.03" y="323.915" style="fill:#40B7D6;stroke:#ADBCDB;stroke-width:0.4252;stroke-miterlimit:10;" width="16.263" height="35.859"/>
						
							<rect x="454.293" y="323.915" style="fill:none;stroke:#ADBCDB;stroke-width:0.4252;stroke-miterlimit:10;" width="16.263" height="35.859"/>
						
							<rect x="470.555" y="323.915" style="fill:none;stroke:#ADBCDB;stroke-width:0.4252;stroke-miterlimit:10;" width="16.262" height="35.859"/>
						
							<rect x="486.818" y="323.915" style="fill:none;stroke:#ADBCDB;stroke-width:0.4252;stroke-miterlimit:10;" width="16.263" height="35.859"/>
						
							<rect x="503.08" y="323.915" style="fill:none;stroke:#ADBCDB;stroke-width:0.4252;stroke-miterlimit:10;" width="16.263" height="35.859"/>
						
							<rect x="519.343" y="323.915" style="fill:#FCC130;stroke:#ADBCDB;stroke-width:0.4252;stroke-miterlimit:10;" width="16.263" height="35.859"/>
						
							<rect x="535.605" y="323.915" style="fill:none;stroke:#ADBCDB;stroke-width:0.4252;stroke-miterlimit:10;" width="16.263" height="35.859"/>
					</g>
					<text transform="matrix(1 0 0 1 439.6439 212.5791)" style="font-family:'Montserrat-Medium'; font-size:5px;">MON</text>
					<text transform="matrix(1 0 0 1 457.3362 212.5791)" style="font-family:'Montserrat-Medium'; font-size:5px;">TUE</text>
					<text transform="matrix(1 0 0 1 472.1686 212.5791)" style="font-family:'Montserrat-Medium'; font-size:5px;">WED</text>
					<text transform="matrix(1 0 0 1 489.4737 212.5791)" style="font-family:'Montserrat-Medium'; font-size:5px;">THU</text>
					<text transform="matrix(1 0 0 1 507.0312 212.5791)" style="font-family:'Montserrat-Medium'; font-size:5px;">FRI</text>
					<text transform="matrix(1 0 0 1 522.7112 212.5791)" style="font-family:'Montserrat-Medium'; font-size:5px;">SAT</text>
					<text transform="matrix(1 0 0 1 538.1765 212.5791)" style="font-family:'Montserrat-Medium'; font-size:5px;">SUN</text>
				</g>
				<text transform="matrix(1 0 0 1 439.6008 225.0574)" style="font-family:'Montserrat-Medium'; font-size:6.0139px;">1</text>
				<text transform="matrix(1 0 0 1 455.9368 225.0574)" style="font-family:'Montserrat-Medium'; font-size:6.0139px;">2</text>
				<text transform="matrix(1 0 0 1 472.2717 225.0574)" style="font-family:'Montserrat-Medium'; font-size:6.0139px;">3</text>
				<text transform="matrix(1 0 0 1 488.6067 225.0574)" style="font-family:'Montserrat-Medium'; font-size:6.0139px;">4</text>
				<text transform="matrix(1 0 0 1 504.9417 225.0574)" style="font-family:'Montserrat-Medium'; font-size:6.0139px;">5</text>
				<text transform="matrix(1 0 0 1 521.2766 225.0574)" style="font-family:'Montserrat-Medium'; font-size:6.0139px;">6</text>
				<text transform="matrix(1 0 0 1 537.6125 225.0574)" style="font-family:'Montserrat-Medium'; font-size:6.0139px;">7</text>
				<text transform="matrix(1 0 0 1 439.6008 260.9163)" style="font-family:'Montserrat-Medium'; font-size:6.0139px;">8</text>
				<text transform="matrix(1 0 0 1 455.9368 260.9163)" style="font-family:'Montserrat-Medium'; font-size:6.0139px;">9</text>
				<text transform="matrix(1 0 0 1 472.2717 260.9163)" style="font-family:'Montserrat-Medium'; font-size:6.0139px;">10</text>
				<text transform="matrix(1 0 0 1 488.6067 260.9163)" style="font-family:'Montserrat-Medium'; font-size:6.0139px;">11</text>
				<text transform="matrix(1 0 0 1 504.9417 260.9163)" style="font-family:'Montserrat-Medium'; font-size:6.0139px;">12</text>
				<text transform="matrix(1 0 0 1 521.2766 260.9163)" style="font-family:'Montserrat-Medium'; font-size:6.0139px;">13</text>
				<text transform="matrix(1 0 0 1 537.6125 260.9163)" style="font-family:'Montserrat-Medium'; font-size:6.0139px;">14</text>
				<text transform="matrix(1 0 0 1 439.6008 296.7756)" style="font-family:'Montserrat-Medium'; font-size:6.0139px;">15</text>
				<text transform="matrix(1 0 0 1 455.9368 296.7756)" style="font-family:'Montserrat-Medium'; font-size:6.0139px;">16</text>
				<text transform="matrix(1 0 0 1 472.2717 296.7756)" style="font-family:'Montserrat-Medium'; font-size:6.0139px;">17</text>
				<text transform="matrix(1 0 0 1 488.6067 296.7756)" style="font-family:'Montserrat-Medium'; font-size:6.0139px;">18</text>
				<text transform="matrix(1 0 0 1 504.9417 296.7756)" style="font-family:'Montserrat-Medium'; font-size:6.0139px;">19</text>
				<text transform="matrix(1 0 0 1 521.2766 296.7756)" style="font-family:'Montserrat-Medium'; font-size:6.0139px;">20</text>
				<text transform="matrix(1 0 0 1 537.6125 296.7756)" style="font-family:'Montserrat-Medium'; font-size:6.0139px;">21</text>
				<text transform="matrix(1 0 0 1 439.6008 332.634)" style="font-family:'Montserrat-Medium'; font-size:6.0139px;">22</text>
				<text transform="matrix(1 0 0 1 455.9368 332.634)" style="font-family:'Montserrat-Medium'; font-size:6.0139px;">23</text>
				<text transform="matrix(1 0 0 1 472.2717 332.634)" style="font-family:'Montserrat-Medium'; font-size:6.0139px;">24</text>
				<text transform="matrix(1 0 0 1 488.6067 332.634)" style="font-family:'Montserrat-Medium'; font-size:6.0139px;">25</text>
				<text transform="matrix(1 0 0 1 504.9417 332.634)" style="font-family:'Montserrat-Medium'; font-size:6.0139px;">26</text>
				<text transform="matrix(1 0 0 1 521.2766 332.634)" style="font-family:'Montserrat-Medium'; font-size:6.0139px;">27</text>
				<text transform="matrix(1 0 0 1 537.6125 332.634)" style="font-family:'Montserrat-Medium'; font-size:6.0139px;">28</text>
			</g>
			<path style="fill:#F3DA80;" d="M544.16,399.867h-98.723c-4.09,0-7.406-3.316-7.406-7.406v-17.188c0-4.09,3.316-7.406,7.406-7.406
				h98.723c4.09,0,7.406,3.316,7.406,7.406v17.188C551.566,396.551,548.25,399.867,544.16,399.867z"/>
			<g>
				<g>
					<circle style="fill:#40B7D6;" cx="449.429" cy="376.339" r="2.333"/>
					
						<line style="fill:none;stroke:#0C1153;stroke-width:0.4252;stroke-miterlimit:10;" x1="455.605" y1="376.339" x2="491.431" y2="376.339"/>
					<circle style="fill:#154059;" cx="449.429" cy="383.867" r="2.333"/>
					
						<line style="fill:none;stroke:#0C1153;stroke-width:0.4252;stroke-miterlimit:10;" x1="455.605" y1="383.867" x2="491.431" y2="383.867"/>
					<circle style="fill:#F26D76;" cx="449.429" cy="391.394" r="2.333"/>
					
						<line style="fill:none;stroke:#0C1153;stroke-width:0.4252;stroke-miterlimit:10;" x1="455.605" y1="391.394" x2="491.431" y2="391.394"/>
				</g>
				<g>
					<circle style="fill:#F26D76;" cx="500.498" cy="376.339" r="2.333"/>
					
						<line style="fill:none;stroke:#0C1153;stroke-width:0.4252;stroke-miterlimit:10;" x1="506.674" y1="376.339" x2="542.5" y2="376.339"/>
					<circle style="fill:#FFFFFF;" cx="500.498" cy="383.867" r="2.333"/>
					
						<line style="fill:none;stroke:#0C1153;stroke-width:0.4252;stroke-miterlimit:10;" x1="506.674" y1="383.867" x2="542.5" y2="383.867"/>
					<circle style="fill:#154059;" cx="500.498" cy="391.394" r="2.333"/>
					
						<line style="fill:none;stroke:#0C1153;stroke-width:0.4252;stroke-miterlimit:10;" x1="506.674" y1="391.394" x2="542.5" y2="391.394"/>
				</g>
			</g>
			<circle style="fill:none;stroke:#ADBCDB;stroke-width:0.8504;stroke-miterlimit:10;" cx="475.174" cy="413.213" r="4.58"/>
			<polygon style="fill:none;stroke:#ADBCDB;stroke-width:0.8504;stroke-miterlimit:10;" points="498.102,408.764 492.706,417.661 
				503.497,417.661 			"/>
			
				<rect x="516.704" y="408.888" style="fill:none;stroke:#ADBCDB;stroke-width:0.8504;stroke-miterlimit:10;" width="8.649" height="8.649"/>
		</g>
		<g>
			<g>
				
					<line style="fill:none;stroke:#5B798B;stroke-width:2.8347;stroke-miterlimit:10;" x1="274.945" y1="456.5" x2="300.774" y2="333.181"/>
				
					<line style="fill:none;stroke:#5B798B;stroke-width:2.8347;stroke-miterlimit:10;" x1="301.501" y1="456.5" x2="327.331" y2="333.181"/>
				
					<line style="fill:none;stroke:#44667A;stroke-width:2.8347;stroke-miterlimit:10;" x1="374.331" y1="456.5" x2="328.501" y2="333.181"/>
				<g>
					
						<rect x="335.732" y="436.564" transform="matrix(-1 -1.224647e-16 1.224647e-16 -1 706.6976 875.0423)" style="fill:#FDCD59;" width="35.234" height="1.915"/>
					
						<rect x="335.732" y="436.564" transform="matrix(-1 -1.224647e-16 1.224647e-16 -1 682.0338 875.0423)" style="fill:#FDCD59;" width="10.57" height="1.915"/>
				</g>
				<g>
					
						<rect x="317.604" y="388.876" transform="matrix(-1 -1.224647e-16 1.224647e-16 -1 670.4423 779.6663)" style="fill:#FDCD59;" width="35.234" height="1.915"/>
					
						<rect x="317.604" y="388.876" transform="matrix(-1 -1.224647e-16 1.224647e-16 -1 645.7785 779.6663)" style="fill:#FDCD59;" width="10.57" height="1.915"/>
				</g>
				<g>
					
						<rect x="326.668" y="412.72" transform="matrix(-1 -1.224647e-16 1.224647e-16 -1 688.57 827.3543)" style="fill:#FDCD59;" width="35.234" height="1.915"/>
					
						<rect x="326.668" y="412.72" transform="matrix(-1 -1.224647e-16 1.224647e-16 -1 663.9062 827.3543)" style="fill:#FDCD59;" width="10.57" height="1.915"/>
				</g>
				<g>
					
						<rect x="308.54" y="365.032" transform="matrix(-1 -1.224647e-16 1.224647e-16 -1 652.3147 731.9784)" style="fill:#FDCD59;" width="35.234" height="1.915"/>
					
						<rect x="308.54" y="365.032" transform="matrix(-1 -1.224647e-16 1.224647e-16 -1 627.6508 731.9784)" style="fill:#FDCD59;" width="10.57" height="1.915"/>
				</g>
				
					<line style="fill:none;stroke:#44667A;stroke-width:2.8347;stroke-miterlimit:10;" x1="347.774" y1="456.5" x2="301.945" y2="333.181"/>
				<path style="fill:#A1B3BD;" d="M297.668,334.33h6.74v0.268c0,1.861-1.509,3.37-3.37,3.37l0,0c-1.861,0-3.37-1.509-3.37-3.37
					V334.33z"/>
				<path style="fill:none;stroke:#0C1153;stroke-width:0.4252;stroke-miterlimit:10;" d="M299.689,334.33
					c0-0.745,0.604-1.349,1.349-1.349c0.745,0,1.349,0.604,1.349,1.349s-0.604,1.349-1.349,1.349
					C300.293,335.679,299.689,335.075,299.689,334.33z"/>
				<path style="fill:#A1B3BD;" d="M324.689,334.33h6.74v0.268c0,1.861-1.509,3.37-3.37,3.37l0,0c-1.861,0-3.37-1.509-3.37-3.37
					V334.33z"/>
				<path style="fill:none;stroke:#0C1153;stroke-width:0.4252;stroke-miterlimit:10;" d="M326.71,334.33
					c0-0.745,0.604-1.349,1.349-1.349c0.745,0,1.349,0.604,1.349,1.349s-0.604,1.349-1.349,1.349
					C327.314,335.679,326.71,335.075,326.71,334.33z"/>
				
					<line style="fill:none;stroke:#5B798B;stroke-width:2.8347;stroke-miterlimit:10;" x1="309.715" y1="422.059" x2="281.803" y2="422.059"/>
				
					<rect x="295.242" y="331.266" transform="matrix(-1 -1.224647e-16 1.224647e-16 -1 629.1231 665.5954)" style="fill:#44667A;" width="38.638" height="3.064"/>
				
					<rect x="295.242" y="331.266" transform="matrix(-1 -1.224647e-16 1.224647e-16 -1 602.0763 665.5954)" style="opacity:0.4;fill:#44667A;" width="11.591" height="3.064"/>
				<g style="opacity:0.3;">
					<g>
						<polyline style="fill:none;stroke:#0C1153;stroke-width:0.4252;stroke-miterlimit:10;" points="372.686,452.074 
							374.331,456.5 372.686,452.074 						"/>
						<polyline style="fill:none;stroke:#0C1153;stroke-width:0.4252;stroke-miterlimit:10;" points="346.13,452.074 347.774,456.5 
							346.13,452.074 						"/>
						<polyline style="fill:none;stroke:#0C1153;stroke-width:0.4252;stroke-miterlimit:10;" points="302.428,452.074 
							301.501,456.5 302.428,452.074 						"/>
						<polyline style="fill:none;stroke:#0C1153;stroke-width:0.4252;stroke-miterlimit:10;" points="275.871,452.074 
							274.945,456.5 275.871,452.074 						"/>
					</g>
					<g>
						<polyline style="fill:none;stroke:#44667A;stroke-width:2.8347;stroke-miterlimit:10;" points="372.686,452.074 
							374.331,456.5 372.686,452.074 						"/>
						<polyline style="fill:none;stroke:#44667A;stroke-width:2.8347;stroke-miterlimit:10;" points="346.13,452.074 347.774,456.5 
							346.13,452.074 						"/>
						<polyline style="fill:none;stroke:#44667A;stroke-width:2.8347;stroke-miterlimit:10;" points="302.428,452.074 
							301.501,456.5 302.428,452.074 						"/>
						<polyline style="fill:none;stroke:#44667A;stroke-width:2.8347;stroke-miterlimit:10;" points="275.871,452.074 
							274.945,456.5 275.871,452.074 						"/>
					</g>
				</g>
			</g>
			<g>
				<polygon style="fill:#FFA07C;" points="347.053,235.775 345.837,229.127 338.863,229.856 338.695,236.774 				"/>
				<g>
					<path style="fill:#FFA07C;" d="M351.232,224.185c-1.55,8.31-8.242,10.536-15.103,7.506c-6.861-3.03,0.686-13.37,2.268-16.243
						C339.98,212.575,353.833,210.243,351.232,224.185z"/>
					<path style="fill:#FFA07C;" d="M335.284,221.98c-0.776-1.605-2.501-1.053-0.978,1.144"/>
					<path style="fill:#0C1153;" d="M336.601,221.234c-0.247,0.523-0.271,1.015-0.053,1.098c0.218,0.084,0.596-0.273,0.844-0.796
						c0.247-0.523,0.271-1.015,0.053-1.098C337.226,220.354,336.848,220.71,336.601,221.234z"/>
				</g>
				<polygon style="fill:#FFFFFF;" points="327.478,353.725 328.735,358.094 322.042,358.094 320.693,352.424 				"/>
				<path style="fill:#AA5D49;" d="M328.953,358.094c0,0,1.58,4.368,0.744,7.157c-14.871,0-14.871,0-14.871,0v-2.045
					c0,0,0.558-1.58,5.67-3.067c0.929-1.417,1.324-2.045,1.324-2.045H328.953z"/>
				
					<line style="fill:none;stroke:#0C1153;stroke-width:0.4252;stroke-miterlimit:10;" x1="329.911" y1="364.332" x2="314.855" y2="364.332"/>
				<polygon style="fill:#FFFFFF;" points="356.814,377.419 356.655,382.435 349.969,382.148 350.091,375.828 				"/>
				<path style="fill:#AA5D49;" d="M356.873,382.444c0,0,1.391,4.432,0.436,7.182c-14.858-0.637-14.858-0.637-14.858-0.637
					l0.088-2.043c0,0,0.625-1.555,5.796-2.821c0.989-1.376,1.411-1.986,1.411-1.986L356.873,382.444z"/>
				
					<line style="fill:none;stroke:#0C1153;stroke-width:0.4252;stroke-miterlimit:10;" x1="357.533" y1="388.717" x2="342.491" y2="388.072"/>
				<path style="fill:#154059;" d="M360.332,292.59l-1.613,86.474l-10.498-0.45c0,0-6.455-35.167-6.79-39.467
					c-0.335-4.299-4.115-28.557-4.115-28.557l-20.257,8.186l13.513,35.386l-11.722,0.747c0,0-19.856-33.684-19.443-44.054
					c5.505-12.534,30.697-24.03,30.697-24.03L360.332,292.59z"/>
				<path style="fill:#FFA07C;" d="M326.862,253.829c0,0-13.362,14.891-17.903,14.891c-4.541,0-21.276-10.054-21.276-10.054
					l2.465-4.836l18.681,4.836l10.508-13.79L326.862,253.829z"/>
				<path style="fill:#FFA07C;" d="M365.002,251.077c0,0,10.516,16.276,10.905,18.092c0.389,1.816,2.724,24.908,2.724,24.908
					l-5.598,0.284c0,0-4.52-17.967-5.299-20.691c-8.18-10.726-12.563-15.09-12.563-15.09L365.002,251.077z"/>
				<path style="fill:#F26D76;" d="M372.008,257.563c0,0-8.173-13.492-14.141-16.735c-5.968-3.243-24.13-7.395-29.967-4.022
					c-5.838,3.373-15.049,16.346-15.049,16.346l14.011,6.486l-1.711,29.241c0,0,9.495,5.581,17.278,6.827
					c7.784,1.246,16.216,0.253,19.459-1.171c-0.519-17.384-1.427-30.876-1.427-30.876L372.008,257.563z"/>
				<path style="fill:#F26D76;" d="M350.553,238.084l-2.416-3.483c0,0-8.822-1.297-11.416-1.297
					c-1.425,2.257-1.425,2.257-1.425,2.257S342.201,241.437,350.553,238.084z"/>
				<path style="fill:none;stroke:#0C1153;stroke-width:0.4252;stroke-miterlimit:10;" d="M358.646,247.833
					c0,0,1.686,13.767,1.816,15.827"/>
				<path style="fill:none;stroke:#0C1153;stroke-width:0.4252;stroke-miterlimit:10;" d="M326.862,259.639
					c0,0,5.319-8.432,6.486-12.843"/>
				
					<line style="fill:none;stroke:#0C1153;stroke-width:0.4252;stroke-miterlimit:10;" x1="328.145" y1="257.525" x2="315.095" y2="250.134"/>
				
					<line style="fill:none;stroke:#0C1153;stroke-width:0.4252;stroke-miterlimit:10;" x1="370.86" y1="255.747" x2="360.462" y2="261.585"/>
				<path style="fill:none;stroke:#0C1153;stroke-width:0.4252;stroke-miterlimit:10;" d="M350.553,238.084
					c0,0-8.661-1.898-15.257-2.523"/>
				<g>
					<path style="fill:#FFA07C;" d="M373.032,295.862c0,0-0.14,6.844,0.996,6.686c1.248-0.141,1.035-4.008,1.035-4.008
						s-0.458,4.558,0.872,4.405c1.162-0.134,0.787-4.625,0.787-4.625s0.29,3.994,1.218,4.039c0.928,0.045,0.519-4.494,0.519-4.494
						s0.2,3.077,1.157,3.075c0.858-0.002,0.379-3.617,0.326-4.057c-0.241-2.02-0.967-5.08-2.929-6.147
						c-1.875-1.02-3.405,0.624-4.294,2.158"/>
					
						<line style="fill:none;stroke:#0C1153;stroke-width:0.4252;stroke-miterlimit:10;" x1="378.548" y1="300.004" x2="378.425" y2="298.302"/>
					
						<line style="fill:none;stroke:#0C1153;stroke-width:0.4252;stroke-miterlimit:10;" x1="377.032" y1="300.566" x2="376.722" y2="298.321"/>
					
						<line style="fill:none;stroke:#0C1153;stroke-width:0.4252;stroke-miterlimit:10;" x1="374.927" y1="301.086" x2="375.063" y2="298.54"/>
				</g>
				<path style="fill:#FFA07C;" d="M372.719,292.893c-1.557,2.561-1.594,5.468-0.412,5.421c0.656-0.026,0.725-2.452,0.725-2.452"/>
				
					<line style="fill:none;stroke:#0C1153;stroke-width:0.4252;stroke-miterlimit:10;" x1="373.033" y1="297.335" x2="373.086" y2="294.888"/>
				<polyline style="fill:none;stroke:#0C1153;stroke-width:0.4252;stroke-miterlimit:10;" points="337.316,310.59 342.579,308.554 
					349.611,308.485 				"/>
				<path style="fill:none;stroke:#0C1153;stroke-width:0.4252;stroke-miterlimit:10;" d="M335.284,225.391
					c0,0-1.372,0.039-1.586-0.658"/>
				<path style="fill:#AC290E;" d="M341.586,223.124l-1.129,3.069l-1.43-0.802c0,0,1.129-1.681,0.978-2.885
					c-0.151-1.204,0.226-3.461,1.354-4.138c-3.762-0.075-4.891-1.58-4.665-3.235c0.226-1.655,6.821-4.274,12.039-1.867
					c5.217,2.408,4.665,6.155,4.665,6.155s5.417,10.835-7.883,12.833c-3.554-0.343-4.433-2.743-2.3-5.234
					C346.552,223.124,343.115,220.74,341.586,223.124z"/>
				<path style="fill:none;stroke:#5E1A1E;stroke-width:0.4252;stroke-miterlimit:10;" d="M348.55,223.518
					c0,0,0.978,1.057-0.602,1.544c-1.58,0.488-0.602,4.031-2.784,4.065"/>
				<path style="fill:none;stroke:#5E1A1E;stroke-width:0.4252;stroke-miterlimit:10;" d="M349.528,226.678
					c0,0,0.301,2.558-1.58,2.784"/>
				<path style="fill:none;stroke:#5E1A1E;stroke-width:0.4252;stroke-miterlimit:10;" d="M352.688,224.195
					c0,0,0.527,3.386-1.731,3.875"/>
				<path style="fill:none;stroke:#5E1A1E;stroke-width:0.4252;stroke-miterlimit:10;" d="M347.053,220.433
					c0,0-0.158,2.673-1.061,2.691"/>
				<path style="fill:none;stroke:#5E1A1E;stroke-width:0.4252;stroke-miterlimit:10;" d="M350.957,220.433
					c0,0,0.696,2.633-0.404,3.085"/>
				<path style="fill:none;stroke:#5E1A1E;stroke-width:0.4252;stroke-miterlimit:10;" d="M345.992,218.477
					c0,0-1.941,1.314-2.107,2.579"/>
				<path style="fill:none;stroke:#5E1A1E;stroke-width:0.4252;stroke-miterlimit:10;" d="M343.509,218.477
					c0,0-1.505,0.15-1.731,1.956"/>
				<path style="fill:none;stroke:#5E1A1E;stroke-width:0.4252;stroke-miterlimit:10;" d="M343.885,216.37
					c0,0-1.731,0.677-3.536-0.301"/>
				<path style="fill:none;stroke:#5E1A1E;stroke-width:0.4252;stroke-miterlimit:10;" d="M342.925,214.64c0,0-2.049-1.129-3.742,0"
					/>
				<path style="fill:none;stroke:#5E1A1E;stroke-width:0.4252;stroke-miterlimit:10;" d="M347.007,214.64
					c0,0-2.444-0.502-3.122-0.502"/>
				<path style="fill:none;stroke:#5E1A1E;stroke-width:0.4252;stroke-miterlimit:10;" d="M349.546,216.599
					c0,0-0.62,0.675-1.598,0.976"/>
				<path style="fill:none;stroke:#5E1A1E;stroke-width:0.4252;stroke-miterlimit:10;" d="M347.421,215.768
					c0,0-0.524,0.68-1.842,0.566"/>
				<path style="fill:none;stroke:#5E1A1E;stroke-width:0.4252;stroke-miterlimit:10;" d="M351.175,217.086
					c0,0-1.461,0.864-1.629,2.369"/>
				<path style="fill:#FFA07C;" d="M290.025,253.817c-2.311-1.355-4.908-1.347-4.849-0.291c0.033,0.585,2.201,0.613,2.201,0.613"/>
				<g>
					<path style="fill:#3D7BA5;" d="M273.613,261.211l7.368-4.73l-0.818-1.274l-7.368,4.73c-0.005,0.119-0.002,0.422,0.187,0.735
						C273.194,261.024,273.507,261.168,273.613,261.211z"/>
					<path style="fill:#3D7BA5;" d="M273.613,261.211l7.368-4.73l-0.818-1.274l-7.368,4.73c-0.005,0.119-0.002,0.422,0.187,0.735
						C273.194,261.024,273.507,261.168,273.613,261.211z"/>
					<path style="fill:#3D7BA5;" d="M274.919,260.728l10.279-6.599l-1.141-1.777l-10.279,6.599
						c-0.007,0.165-0.003,0.588,0.261,1.026C274.335,260.467,274.771,260.667,274.919,260.728z"/>
					<path style="fill:#6495B7;" d="M276.335,260.42l15.207-9.763l-1.687-2.628l-15.207,9.763c-0.01,0.245-0.004,0.871,0.386,1.517
						C275.471,260.034,276.116,260.331,276.335,260.42z"/>
					<path style="fill:#3D7BA5;" d="M278.664,259.31l18.365-11.79l-2.038-3.174l-18.365,11.79c-0.013,0.296-0.005,1.051,0.466,1.832
						C277.621,258.844,278.4,259.202,278.664,259.31z"/>
					<path style="fill:#6495B7;" d="M295.396,246.328c0.563,0.876,1.276,1.422,1.592,1.219c0.317-0.203,0.117-1.078-0.446-1.955
						c-0.563-0.876-1.276-1.422-1.592-1.219C294.633,244.576,294.833,245.451,295.396,246.328z"/>
				</g>
				<g>
					<path style="fill:#FFA07C;" d="M287.376,254.139c0,0-6.118-0.028-5.96,0.984c0.143,1.113,3.596,0.868,3.596,0.868
						s-2.404-0.401-2.249,0.785c0.136,1.037,2.468,0.695,2.468,0.695s-1.89,0.259-1.916,1.089c-0.027,0.83,2.348,0.457,2.348,0.457
						s-1.072,0.166-1.056,1.021c0.014,0.766,1.562,0.344,1.955,0.29c1.802-0.244,4.526-0.936,5.452-2.704
						c0.884-1.69-0.605-3.034-1.989-3.806"/>
					
						<line style="fill:none;stroke:#0C1153;stroke-width:0.4252;stroke-miterlimit:10;" x1="284.157" y1="259.091" x2="285.663" y2="259.017"/>
					
						<line style="fill:none;stroke:#0C1153;stroke-width:0.4252;stroke-miterlimit:10;" x1="283.893" y1="257.498" x2="285.232" y2="257.471"/>
					
						<line style="fill:none;stroke:#0C1153;stroke-width:0.4252;stroke-miterlimit:10;" x1="283.306" y1="255.977" x2="285.012" y2="255.992"/>
				</g>
				
					<line style="fill:none;stroke:#0C1153;stroke-width:0.4252;stroke-miterlimit:10;" x1="286.061" y1="254.16" x2="288.247" y2="254.174"/>
			</g>
		</g>
		<g>
			<g>
				<path style="fill:#FFA07C;" d="M586.995,357.873c0,0-4.015,5.545-2.992,6.061c1.105,0.596,3.135-2.704,3.135-2.704
					s-2.974,3.485-1.794,4.117c1.031,0.552,3.282-3.352,3.282-3.352s-2.038,3.447-1.301,4.013c0.737,0.566,2.987-3.398,2.987-3.398
					s-1.589,2.643-0.802,3.186c0.706,0.487,2.372-2.756,2.58-3.148c0.953-1.797,2.1-4.726,1.096-6.72
					c-0.96-1.906-3.154-1.428-4.758-0.674"/>
				
					<line style="fill:none;stroke:#0C1153;stroke-width:0.4252;stroke-miterlimit:10;" x1="589.168" y1="364.419" x2="590.037" y2="362.95"/>
				
					<line style="fill:none;stroke:#0C1153;stroke-width:0.4252;stroke-miterlimit:10;" x1="587.602" y1="364.017" x2="588.627" y2="361.996"/>
				
					<line style="fill:none;stroke:#0C1153;stroke-width:0.4252;stroke-miterlimit:10;" x1="585.576" y1="363.246" x2="587.138" y2="361.23"/>
			</g>
			<path style="fill:#FFA07C;" d="M588.43,355.255c-2.739,1.217-4.425,3.585-3.427,4.22c0.554,0.352,1.992-1.602,1.992-1.602"/>
			
				<line style="fill:none;stroke:#0C1153;stroke-width:0.4252;stroke-miterlimit:10;" x1="586.157" y1="359.083" x2="587.595" y2="357.103"/>
			<polygon style="fill:#FFA07C;" points="581.617,301.181 581.492,294.425 574.492,294.016 573.208,300.815 			"/>
			<g>
				<path style="fill:#FFA07C;" d="M587.616,290.42c-2.873,7.95-9.837,9.064-16.118,4.965c-6.281-4.099,2.84-13.083,4.866-15.662
					C578.389,277.143,592.437,277.083,587.616,290.42z"/>
				<path style="fill:#FFA07C;" d="M572.234,285.664c-0.506-1.709-2.298-1.444-1.15,0.971"/>
				<path style="fill:#0C1153;" d="M573.654,285.141c-0.329,0.476-0.432,0.957-0.23,1.075c0.202,0.118,0.632-0.173,0.961-0.649
					c0.329-0.476,0.432-0.957,0.229-1.075C574.413,284.375,573.983,284.665,573.654,285.141z"/>
			</g>
			<path style="fill:#5E1A1E;" d="M578.268,287.813c-0.565,0.545-0.616,1.033-1.301,1.983c-0.163-0.151-0.72-0.65-0.883-0.801
				c0.252-0.641,0.496-1.324,0.725-2.047c0.462-1.461,0.782-2.838,1.004-4.093c-1.621-0.282-2.863-1.212-3.121-2.322
				c-0.164-0.703,0.043-1.397,0.043-1.397c0.089-0.3,0.275-0.923,0.786-1.2c0.542-0.294,0.938,0.081,1.73,0.075
				c1.145-0.008,1.367-0.8,2.483-1.129c0.831-0.245,1.833,0.113,3.837,0.828c1.836,0.655,2.755,0.983,3.345,1.531
				c1.068,0.991,1.004,1.797,2.373,2.758c0.674,0.474,0.971,0.475,1.279,0.903c0.637,0.884,0.321,2.198-0.044,3.168
				c-0.003,0.515,0.024,1.305,0.194,2.25c0.246,1.369,0.485,1.356,0.527,2.107c0.087,1.579-0.885,3.136-1.908,3.997
				c-0.517,0.436-0.627,0.34-1.252,0.893c-0.999,0.884-1.035,1.408-1.73,1.806c-0.534,0.306-0.94,0.241-2.182,0.226
				c-0.82-0.01-2.015,0.001-3.503,0.111c-0.339-1.135-0.752-1.467-1.086-1.54c-0.316-0.069-0.492,0.105-0.903,0
				c-0.375-0.097-0.837-0.399-0.968-0.827c-0.168-0.549,0.358-0.817,0.667-1.881c0.29-1-0.065-1.141,0.226-1.73
				c0.492-0.997,1.57-0.727,2.107-1.655c0.462-0.8,0.36-2.209-0.448-2.604C579.706,286.947,578.891,287.197,578.268,287.813z"/>
			<path style="opacity:0.3;fill:none;stroke:#5E1A1E;stroke-width:0.4252;stroke-miterlimit:10;" d="M585.076,289.328
				c0,0,0.794,1.201-0.844,1.426c-1.638,0.226-1.246,3.88-3.405,3.561"/>
			<path style="opacity:0.3;fill:none;stroke:#5E1A1E;stroke-width:0.4252;stroke-miterlimit:10;" d="M585.531,292.605
				c0,0-0.117,2.573-2.01,2.492"/>
			<path style="opacity:0.3;fill:none;stroke:#5E1A1E;stroke-width:0.4252;stroke-miterlimit:10;" d="M589.05,290.666
				c0,0-0.028,3.426-2.334,3.544"/>
			<path style="opacity:0.3;fill:none;stroke:#5E1A1E;stroke-width:0.4252;stroke-miterlimit:10;" d="M584.098,286.042
				c0,0-0.589,2.612-1.482,2.484"/>
			<path style="opacity:0.3;fill:none;stroke:#5E1A1E;stroke-width:0.4252;stroke-miterlimit:10;" d="M587.951,286.673
				c0,0,0.261,2.711-0.898,2.979"/>
			<path style="opacity:0.3;fill:none;stroke:#5E1A1E;stroke-width:0.4252;stroke-miterlimit:10;" d="M583.367,283.94
				c0,0-2.128,0.983-2.496,2.204"/>
			<path style="opacity:0.3;fill:none;stroke:#5E1A1E;stroke-width:0.4252;stroke-miterlimit:10;" d="M580.917,283.538
				c0,0-1.509-0.095-2.024,1.651"/>
			<path style="opacity:0.3;fill:none;stroke:#5E1A1E;stroke-width:0.4252;stroke-miterlimit:10;" d="M581.629,281.52
				c0,0-1.817,0.388-3.441-0.869"/>
			<path style="opacity:0.3;fill:none;stroke:#5E1A1E;stroke-width:0.4252;stroke-miterlimit:10;" d="M580.961,279.657
				c0,0-1.84-1.445-3.693-0.605"/>
			<path style="opacity:0.3;fill:none;stroke:#5E1A1E;stroke-width:0.4252;stroke-miterlimit:10;" d="M584.989,280.317
				c0,0-2.331-0.89-2.999-1"/>
			<path style="opacity:0.3;fill:none;stroke:#5E1A1E;stroke-width:0.4252;stroke-miterlimit:10;" d="M587.178,282.661
				c0,0-0.721,0.566-1.734,0.704"/>
			<path style="opacity:0.3;fill:none;stroke:#5E1A1E;stroke-width:0.4252;stroke-miterlimit:10;" d="M585.216,281.498
				c0,0-0.627,0.586-1.909,0.26"/>
			<path style="opacity:0.3;fill:none;stroke:#5E1A1E;stroke-width:0.4252;stroke-miterlimit:10;" d="M588.707,283.406
				c0,0-1.581,0.616-1.991,2.074"/>
			<polygon style="fill:#FFFFFF;" points="584.939,445.049 584.995,450.067 578.302,450.067 578.154,443.748 			"/>
			<path style="fill:#154059;" d="M585.213,450.067c0,0,1.58,4.368,0.744,7.157c-14.871,0-14.871,0-14.871,0v-2.045
				c0,0,0.558-1.58,5.67-3.067c0.929-1.417,1.324-2.045,1.324-2.045H585.213z"/>
			
				<line style="fill:none;stroke:#0C1153;stroke-width:0.4252;stroke-miterlimit:10;" x1="586.141" y1="456.306" x2="571.085" y2="456.306"/>
			<polygon style="fill:#FFFFFF;" points="550.828,445.049 549.372,450.067 542.68,450.067 544.043,443.748 			"/>
			<path style="fill:#154059;" d="M549.59,450.067c0,0,1.58,4.368,0.743,7.157c-14.871,0-14.871,0-14.871,0v-2.045
				c0,0,0.558-1.58,5.67-3.067c0.93-1.417,1.325-2.045,1.325-2.045H549.59z"/>
			
				<line style="fill:none;stroke:#0C1153;stroke-width:0.4252;stroke-miterlimit:10;" x1="550.519" y1="456.306" x2="535.463" y2="456.306"/>
			<path style="fill:#2C536A;" d="M557.777,349.998l-4.276,20.634l-11.711,76.215l10.967,0.929c0,0,3.904-10.038,5.949-12.641
				c2.045-2.602,0.372-8.365,1.859-12.269c1.487-3.904,4.833-15.243,3.904-20.448c-0.93-5.205,6.32-26.211,6.32-26.211l4.09,71.568
				h12.455c0,0-1.115-4.276,0.558-12.269c1.673-7.993-2.045-13.012,0-16.916s-0.93-36.992-0.93-36.992s3.346-21.192-0.372-28.999
				C579.154,350.369,557.777,349.998,557.777,349.998z"/>
			<path style="fill:#FFA07C;" d="M553.315,310.589c-8.204-3.204-20.233-6.736-20.875-11.897
				c-0.734-5.894,7.457-30.047,7.457-30.047l5.856,1.487l-2.351,23.471l13.26,5.46"/>
			<path style="fill:#FFA07C;" d="M600.113,323.499c0,0,8.226,11.999,8.644,16.042c0.418,4.043-15.545,17.985-15.545,17.985
				l-3.625-3.207l8.435-14.778l-4.74-9.379L600.113,323.499z"/>
			<path style="fill:#D0DAE9;" d="M586.848,303.282l-1.374-0.687v-2.417l-14.685-2.231l-1.673,1.115l-19.519-4.276l-3.532,15.057
				l9.852,5.205l-1.673,39.037c0,0,22.493,7.808,36.62,0.93l0.744-23.98l4.647,6.878l11.339-7.752l-6.551-12.811
				C597.934,311.268,592.96,306.338,586.848,303.282z"/>
			<path style="fill:#40B7D6;" d="M586.848,303.282l-1.374-0.687v-2.417l-14.685-2.231l-1.673,1.115l-19.519-4.276l-3.532,15.057
				l9.852,5.205l-1.673,39.037c0,0,22.493,7.808,36.621,0.93l0.743-23.98l4.647,6.878l11.339-7.752l-6.551-12.811
				C597.934,311.268,592.96,306.338,586.848,303.282z"/>
			
				<line style="fill:none;stroke:#0C1153;stroke-width:0.4252;stroke-miterlimit:10;" x1="570.789" y1="376.208" x2="578.643" y2="374.005"/>
			<g>
				<path style="fill:#FFA07C;" d="M546.014,268.593c0,0,2.499-6.373,1.379-6.617c-1.219-0.3-2.358,3.403-2.358,3.403
					s2.006-4.118,0.706-4.435c-1.137-0.276-2.338,4.067-2.338,4.067s1.11-3.848,0.254-4.211c-0.856-0.363-2.041,4.038-2.041,4.038
					s0.877-2.957-0.022-3.285c-0.805-0.295-1.606,3.262-1.709,3.694c-0.473,1.978-0.85,5.101,0.622,6.781
					c1.406,1.605,3.411,0.593,4.775-0.539"/>
				
					<line style="fill:none;stroke:#0C1153;stroke-width:0.4252;stroke-miterlimit:10;" x1="542.271" y1="262.8" x2="541.797" y2="264.439"/>
				
					<line style="fill:none;stroke:#0C1153;stroke-width:0.4252;stroke-miterlimit:10;" x1="543.888" y1="262.797" x2="543.402" y2="265.01"/>
				
					<line style="fill:none;stroke:#0C1153;stroke-width:0.4252;stroke-miterlimit:10;" x1="546.043" y1="263.036" x2="545.034" y2="265.379"/>
			</g>
			<path style="fill:#FFA07C;" d="M545.281,271.487c2.347-1.865,3.387-4.579,2.261-4.944c-0.624-0.202-1.528,2.049-1.528,2.049"/>
			
				<line style="fill:none;stroke:#0C1153;stroke-width:0.4252;stroke-miterlimit:10;" x1="546.522" y1="267.212" x2="545.626" y2="269.488"/>
			<path style="fill:#5E1A1E;" d="M577.024,289.652c0,0-2.663,6.944-6.072,5.815c-3.408-1.129-2.532-7.694,0.131-8.832
				c1.228,0.473,1.55,2.987,1.15,4.405c-0.401,1.417,3.125,0.001,3.85-2.046C576.84,289.19,577.024,289.652,577.024,289.652z"/>
			<path style="fill:none;stroke:#0C1153;stroke-width:0.4252;stroke-miterlimit:10;" d="M571.682,289.031
				c0,0-1.361-0.184-1.458-0.905"/>
			<g>
				<defs>
					<path id="SVGID_1_" d="M586.848,303.282l-1.374-0.687v-2.417l-14.685-2.231l-1.673,1.115l-19.519-4.276l-3.532,15.057
						l9.852,5.205l-1.673,39.037c0,0,22.493,7.808,36.621,0.93l0.743-23.98l4.647,6.878l11.339-7.752l-6.551-12.811
						C597.934,311.268,592.96,306.338,586.848,303.282z"/>
				</defs>
				<clipPath id="SVGID_00000115494671648012991960000003330839220169185665_">
					<use xlink:href="#SVGID_1_"  style="overflow:visible;"/>
				</clipPath>
				<g style="clip-path:url(#SVGID_00000115494671648012991960000003330839220169185665_);">
					
						<line style="fill:none;stroke:#3D7BA5;stroke-width:0.4252;stroke-miterlimit:10;" x1="545.034" y1="298.753" x2="614.168" y2="298.753"/>
					
						<line style="fill:none;stroke:#3D7BA5;stroke-width:0.4252;stroke-miterlimit:10;" x1="545.034" y1="305.979" x2="614.168" y2="305.979"/>
					
						<line style="fill:none;stroke:#3D7BA5;stroke-width:0.4252;stroke-miterlimit:10;" x1="545.034" y1="313.205" x2="614.168" y2="313.205"/>
					
						<line style="fill:none;stroke:#3D7BA5;stroke-width:0.4252;stroke-miterlimit:10;" x1="545.034" y1="320.431" x2="614.168" y2="320.431"/>
					
						<line style="fill:none;stroke:#3D7BA5;stroke-width:0.4252;stroke-miterlimit:10;" x1="545.034" y1="327.658" x2="614.168" y2="327.658"/>
					
						<line style="fill:none;stroke:#3D7BA5;stroke-width:0.4252;stroke-miterlimit:10;" x1="545.034" y1="334.884" x2="614.168" y2="334.884"/>
					
						<line style="fill:none;stroke:#3D7BA5;stroke-width:0.4252;stroke-miterlimit:10;" x1="545.034" y1="342.111" x2="614.168" y2="342.111"/>
					
						<line style="fill:none;stroke:#3D7BA5;stroke-width:0.4252;stroke-miterlimit:10;" x1="545.034" y1="349.337" x2="614.168" y2="349.337"/>
					
						<line style="fill:none;stroke:#3D7BA5;stroke-width:0.4252;stroke-miterlimit:10;" x1="600.894" y1="289.478" x2="600.894" y2="358.612"/>
					
						<line style="fill:none;stroke:#3D7BA5;stroke-width:0.4252;stroke-miterlimit:10;" x1="593.667" y1="289.478" x2="593.667" y2="358.612"/>
					
						<line style="fill:none;stroke:#3D7BA5;stroke-width:0.4252;stroke-miterlimit:10;" x1="586.441" y1="289.478" x2="586.441" y2="358.612"/>
					
						<line style="fill:none;stroke:#3D7BA5;stroke-width:0.4252;stroke-miterlimit:10;" x1="579.215" y1="289.478" x2="579.215" y2="358.612"/>
					
						<line style="fill:none;stroke:#3D7BA5;stroke-width:0.4252;stroke-miterlimit:10;" x1="571.988" y1="289.478" x2="571.988" y2="358.612"/>
					
						<line style="fill:none;stroke:#3D7BA5;stroke-width:0.4252;stroke-miterlimit:10;" x1="564.762" y1="289.478" x2="564.762" y2="358.612"/>
					
						<line style="fill:none;stroke:#3D7BA5;stroke-width:0.4252;stroke-miterlimit:10;" x1="557.536" y1="289.478" x2="557.536" y2="358.612"/>
					
						<line style="fill:none;stroke:#3D7BA5;stroke-width:0.4252;stroke-miterlimit:10;" x1="550.309" y1="289.478" x2="550.309" y2="358.612"/>
				</g>
			</g>
			<path style="fill:none;stroke:#0C1153;stroke-width:0.4252;stroke-miterlimit:10;" d="M585.474,302.595
				c0,0-10.968,0.604-16.358-3.532"/>
			
				<line style="fill:none;stroke:#0C1153;stroke-width:0.4252;stroke-miterlimit:10;" x1="591.609" y1="331.037" x2="592.306" y2="314.725"/>
			
				<line style="fill:none;stroke:#0C1153;stroke-width:0.4252;stroke-miterlimit:10;" x1="552.701" y1="313.35" x2="558.427" y2="315.84"/>
			
				<line style="fill:none;stroke:#0C1153;stroke-width:0.4252;stroke-miterlimit:10;" x1="552.701" y1="295.468" x2="548.67" y2="311.221"/>
			
				<line style="fill:none;stroke:#0C1153;stroke-width:0.4252;stroke-miterlimit:10;" x1="606.513" y1="328.045" x2="594.988" y2="336.037"/>
		</g>
		<g>
			<g>
				<g>
					<path style="fill:#154059;" d="M405.85,451.185c0,0-0.94,2.057-0.313,4.111c2.802,0.834,12.305,1.928,12.305,1.928
						s0.578-1.848-1.946-3.261c-3.772-2.112-5.458-3.216-5.458-3.216L405.85,451.185z"/>
					<path style="fill:#AC290E;" d="M405.85,451.185c0,0,3.823,3.136,7.85,1.526c-2.99-1.816-3.261-1.965-3.261-1.965
						L405.85,451.185z"/>
					<path style="fill:#154059;" d="M450.738,453.163c0,0,0.003,2.262,1.43,3.867c2.894-0.411,11.989-3.378,11.989-3.378
						s-0.245-1.921-3.128-2.153c-4.31-0.347-6.302-0.674-6.302-0.674L450.738,453.163z"/>
					<path style="fill:#AC290E;" d="M450.738,453.163c0,0,4.782,1.256,7.772-1.886c-3.475-0.405-3.784-0.453-3.784-0.453
						L450.738,453.163z"/>
					<path style="fill:#AC290E;" d="M405.85,451.185l4.527-0.105l3.449-13.288c-2.612-0.33-5.212-0.789-7.793-1.38
						C405.944,443.951,405.85,451.185,405.85,451.185z"/>
					<path style="fill:#3D7BA5;" d="M446.914,402.972c-1.898-31.877-9.197-44.773-14.238-51.157
						c-14.881-1.241-22.238,0.384-22.238,0.384s-2.328,3.779-4.634,19.038c-0.914,6.048,0.175,18.098,1.484,26.059
						c0.849,5.168,0.671,10.424-0.249,15.58c-0.124,0.692-0.222,1.389-0.289,2.084c-0.424,4.38-0.622,13.545-0.716,21.451
						c2.581,0.592,5.181,1.051,7.793,1.38l8.184-31.53c0.326,0.021,2.569-24.516,2.569-24.516l8.973,23.786
						c0,0,1.018,8.986,1.551,13.814c0.422,3.817,3.596,10.773,6.974,17.297c3.286-0.66,6.536-1.494,9.733-2.489
						C449.364,420.665,446.349,403.364,446.914,402.972z"/>
					<path style="fill:#AC290E;" d="M442.077,436.644c4.174,8.06,8.661,16.519,8.661,16.519l3.988-2.338c0,0-1.34-7.987-2.915-16.67
						C448.613,435.15,445.363,435.984,442.077,436.644z"/>
					<polyline style="fill:none;stroke:#0C1153;stroke-width:0.4252;stroke-miterlimit:10;" points="425.365,384.199 
						421.511,374.388 417.114,373.709 					"/>
				</g>
			</g>
			<path style="fill:#AC290E;" d="M420.883,334.744c0,0,7.161,11.467,10.599,12.131c3.438,0.664,23.708-11.776,23.708-11.776
				l-3.343-3.461l-17.243,6.243l-7.463-10.417L420.883,334.744z"/>
			<g>
				<path style="fill:#FFB383;" d="M456.684,329.833c-0.813,0.573-1.733,1.007-1.733,1.007S455.772,330.287,456.684,329.833z"/>
				<path style="fill:#FFB383;" d="M455.562,332.318c-0.027,0.012-0.043,0.019-0.043,0.019S455.535,332.33,455.562,332.318z"/>
				<path style="fill:#FFB383;" d="M456.051,333.952c-0.076,0.034-0.128,0.056-0.128,0.056S455.971,333.986,456.051,333.952z"/>
				<path style="fill:#AC290E;" d="M449.129,331.427c1.452-2.474,3.884-3.824,4.381-2.807c0.275,0.564-1.737,1.723-1.737,1.723
					s5.704-3.224,6.086-2.195c0.213,0.531-0.437,1.165-1.175,1.685c-0.912,0.454-1.733,1.007-1.733,1.007s0.92-0.434,1.733-1.007
					c1.008-0.502,2.126-0.882,2.375-0.258c0.39,0.977-3.076,2.556-3.497,2.743c-0.027,0.012-0.043,0.019-0.043,0.019
					s0.016-0.007,0.043-0.019c0.396-0.174,3.484-1.501,3.913-0.788c0.412,0.683-2.762,2.129-3.424,2.421
					c-0.079,0.034-0.128,0.056-0.128,0.056s0.051-0.022,0.128-0.056c0.534-0.229,2.612-1.067,2.989-0.365
					c0.387,0.724-2.876,1.96-3.271,2.116c-1.811,0.714-4.72,1.49-6.509,0.322C447.549,334.907,448.24,332.872,449.129,331.427z"/>
				
					<line style="fill:none;stroke:#0C1153;stroke-width:0.4252;stroke-miterlimit:10;" x1="457.766" y1="333.112" x2="456.276" y2="333.781"/>
				
					<line style="fill:none;stroke:#0C1153;stroke-width:0.4252;stroke-miterlimit:10;" x1="457.551" y1="331.579" x2="455.519" y2="332.337"/>
				
					<line style="fill:none;stroke:#0C1153;stroke-width:0.4252;stroke-miterlimit:10;" x1="457.035" y1="329.569" x2="454.951" y2="330.84"/>
				
					<line style="fill:none;stroke:#0C1153;stroke-width:0.4252;stroke-miterlimit:10;" x1="453.014" y1="329.676" x2="451.773" y2="330.343"/>
			</g>
			<g>
				<path style="fill:#AC290E;" d="M459.448,292.943c0,0,1.6-5.905,2.534-5.484c1.035,0.434-0.119,3.698-0.119,3.698
					s0.753-4.024,1.855-3.559c0.963,0.407-0.487,4.164-0.487,4.164s1.252-3.353,2.059-3.158c0.808,0.195-0.684,3.985-0.684,3.985
					s0.945-2.589,1.765-2.347c0.735,0.217-0.584,3.197-0.74,3.562c-0.714,1.672-2.106,4.114-4.057,4.536
					c-1.864,0.403-2.764-1.391-3.14-2.93"/>
				
					<line style="fill:none;stroke:#0C1153;stroke-width:0.4252;stroke-miterlimit:10;" x1="465.219" y1="290.777" x2="464.686" y2="292.206"/>
				
					<line style="fill:none;stroke:#0C1153;stroke-width:0.4252;stroke-miterlimit:10;" x1="464.06" y1="289.914" x2="463.231" y2="291.762"/>
				
					<line style="fill:none;stroke:#0C1153;stroke-width:0.4252;stroke-miterlimit:10;" x1="462.386" y1="288.939" x2="461.863" y2="291.157"/>
			</g>
			<path style="fill:#AC290E;" d="M458.434,295.41c-0.692-2.588,0.007-5.09,1.009-4.752c0.556,0.187,0.006,2.285,0.006,2.285"/>
			<polygon style="fill:#AC290E;" points="420.665,313.414 422.208,303.748 429.169,305.107 429.623,313.759 427.852,318.91 			"/>
			<path style="fill:#AC290E;" d="M417.216,298.285c0.817,8.51,6.315,10.378,14.542,8.915c7.469-1.328,0.507-13.531-0.83-16.566
				C429.591,287.598,415.845,284.008,417.216,298.285z"/>
			<path style="fill:#AC290E;" d="M433.735,298.312c0.66-0.888,2.13-0.001,0.882,1.24"/>
			<path style="fill:none;stroke:#0C1153;stroke-width:0.4252;stroke-miterlimit:10;" d="M433.611,301.344
				c0,0,0.63,0.148,1.277,0.036"/>
			<path style="fill:#0C1153;" d="M432.558,297.114c0.202,0.549,0.182,1.046-0.045,1.111c-0.227,0.065-0.576-0.328-0.778-0.877
				s-0.182-1.047,0.045-1.111C432.007,296.172,432.355,296.565,432.558,297.114z"/>
			<path style="fill:#AC290E;" d="M450.488,315.11l5.168,0.469l4.436-21.041l4.293-0.048c0,0-0.324,25.833-3.626,28.562
				c-3.302,2.729-11.553,2.961-11.553,2.961L450.488,315.11z"/>
			<path style="fill:#FCC130;" d="M440.371,312.878c-9.954-1.982-20.975-5.859-26.592-0.728c-10.3,9.407-3.341,40.119-3.341,40.119
				c2.868,0.901,19.203-0.035,22.238-0.415c-0.127-9.805,1.94-13.649,4.034-15.26c0.534-0.411,2.102-1.471,2.822-3.452
				c0.688-1.894,0.299-3.797-0.161-5.145c4.335-0.508,8.67-1.017,13.004-1.525l0.088-11.471
				C452.463,314.999,450.416,314.878,440.371,312.878z"/>
			
				<line style="fill:none;stroke:#0C1153;stroke-width:0.4252;stroke-miterlimit:10;" x1="459.819" y1="291.681" x2="459.25" y2="293.792"/>
			
				<line style="fill:none;stroke:#0C1153;stroke-width:0.4252;stroke-miterlimit:10;" x1="439.371" y1="327.996" x2="437.213" y2="328.401"/>
			<path style="fill:none;stroke:#0C1153;stroke-width:0.4252;stroke-miterlimit:10;" d="M451.483,314.813
				c-0.158,0.039-0.224,11.69-0.224,11.69"/>
			<path style="fill:#5E1A1E;" d="M433.735,290.7c0.781,2.338-0.419,4.171-3.434,4.576c-1.639,0.22-2.055,4.961,0,7.168
				c-3.961,1.003-3.159-3.603-3.861-5.213c-0.702-1.609-3.796,1.064-1.296,4.191c2.5,3.128-1.47,5.2-3.398,5.217
				c-1.928,0.017-5.64-2.744-6.241-8.687c-0.602-5.943-0.401-6.356,0.702-7.253c1.104-0.897,0.1-2.347,1.706-2.826
				c1.605-0.479,2.709-1.984,4.314-1.382c1.605,0.602,3.417-1.675,5.084-0.472c1.668,1.204,2.513-0.431,3.443,1.174
				C431.684,288.8,432.898,288.196,433.735,290.7z"/>
			<path style="fill:#5E1A1E;" d="M415.302,291.961c-0.773,2.717-3.008-0.548-5.01,5.311c-0.516,1.511-4.499,1.176-3.59,4.127
				c0.685,2.225-1.365,2.862-1.499,4.258c-0.052,0.544,0.25,0.419,0.644,1.691c0.445,1.439,0.146,1.779,0.628,2.82
				c0.207,0.447,0.472,0.799,1.003,1.505c0.449,0.596,0.814,2.402,1.302,2.728c1.246,0.833,1.418,0.981,2.832,0.412
				c2.29-0.921,2.065-0.437,3.189,0.271c1.277,0.804,0.954,1.922,2.107,2.307c1.102,0.368,1.649-0.57,3.11-0.201
				c0.866,0.219,0.831,0.588,1.906,0.903c0.474,0.139,1.385,0.406,2.439,0.101c0.158-0.046,1.739-0.527,2.277-1.907
				c0.16-0.41,0.109-0.595,0.035-2.225c-0.084-1.849-0.126-2.774-0.035-3.192c0.362-1.662,1.314-1.908,1.116-2.855
				c-0.221-1.053-1.446-0.992-1.717-2.161c-0.195-0.841,0.389-1.09,0.301-2.408c-0.055-0.822-0.329-1.431-0.502-1.806
				c-0.475-1.031-0.694-0.219-1.606-2.088"/>
			<path style="fill:none;stroke:#6E3134;stroke-width:0.4252;stroke-miterlimit:10;" d="M421.248,302.217
				c0,0-0.903,1.43,0.451,2.709c1.354,1.279-1.655,4.815,0.602,5.794"/>
			<path style="fill:none;stroke:#6E3134;stroke-width:0.4252;stroke-miterlimit:10;" d="M418.013,304.7
				c0,0-2.238,2.934-0.893,3.988c1.345,1.053,0.837,3.912,0,4.138"/>
			<path style="fill:none;stroke:#6E3134;stroke-width:0.4252;stroke-miterlimit:10;" d="M415.831,301.422
				c-1.73,1.247-2.934,2.196-2.107,3.866c0.828,1.67-2.107,3.4-0.752,4.68"/>
			<path style="fill:none;stroke:#6E3134;stroke-width:0.4252;stroke-miterlimit:10;" d="M415.831,297.231
				c-2.408,0.623-3.913,1.526-3.762,2.654c0.15,1.129-2.633,2.031-2.182,3.386"/>
			<path style="fill:none;stroke:#6E3134;stroke-width:0.4252;stroke-miterlimit:10;" d="M420.665,296.196
				c0,0-2.426,3.226-1.674,5.226"/>
			<path style="fill:none;stroke:#6E3134;stroke-width:0.4252;stroke-miterlimit:10;" d="M423.355,295.276
				c0,0-1.881,2.495-1.053,3.477"/>
			<path style="fill:none;stroke:#6E3134;stroke-width:0.4252;stroke-miterlimit:10;" d="M419.756,291.624
				c0,0-0.012,2.688-1.743,2.954"/>
			<path style="fill:none;stroke:#6E3134;stroke-width:0.4252;stroke-miterlimit:10;" d="M411.166,305.695
				c0,0-2.558,0.47-1.806,1.957c0.752,1.488,0.151,3.176-0.451,3.385"/>
			<path style="fill:none;stroke:#6E3134;stroke-width:0.4252;stroke-miterlimit:10;" d="M425.612,293.101
				c0,0-0.301,1.779,1.053,2.175"/>
			<path style="fill:none;stroke:#6E3134;stroke-width:0.4252;stroke-miterlimit:10;" d="M423.806,290.329
				c0,0,0.166,1.502-1.083,2.218"/>
			<path style="fill:none;stroke:#6E3134;stroke-width:0.4252;stroke-miterlimit:10;" d="M427.267,290.7
				c0,0,1.279,1.193,0.828,2.292"/>
			<path style="fill:none;stroke:#6E3134;stroke-width:0.4252;stroke-miterlimit:10;" d="M429.623,289.724
				c0,0,1.981,2.243,0.678,3.268"/>
			<path style="fill:none;stroke:#6E3134;stroke-width:0.4252;stroke-miterlimit:10;" d="M426.14,288.033
				c0,0-2.183-0.487-2.785,0.566c-0.602,1.053-2.546,0.677-2.402,1.73"/>
			<path style="fill:none;stroke:#6E3134;stroke-width:0.4252;stroke-miterlimit:10;" d="M419.756,288.75
				c0,0-1.968,1.305-1.743,2.609"/>
			<path style="fill:none;stroke:#6E3134;stroke-width:0.4252;stroke-miterlimit:10;" d="M416.69,293.522
				c0,0-0.784,1.171-2.063,1.397"/>
			<path style="fill:#FCC130;" d="M409.443,346.901c0.75,4.206-4.457,14.06-3.978,18.744c0.478,4.684,17.213,2.107,21.802-4.514
				c4.59-6.621,12.43,3.214,12.43,3.214s-3.775-14.268-8.215-17.469"/>
		</g>
		<g>
			<path style="fill:#FFB383;" d="M185.321,336.141c0,0-4.697,15.048,4.766,23.475c9.463,8.427,9.122-11.076,9.122-11.076
				L185.321,336.141z"/>
			<path style="fill:#FFB383;" d="M198.303,400.708c-3.121,13.807-3.453,16.372-14.027,51.222c-1.308-0.213-4.326-0.708-4.326-0.708
				l3.499-45.292"/>
			<path style="fill:#154059;" d="M179.949,451.222c0,0-0.945,1.763-0.507,3.609c2.425,0.893,10.749,2.393,10.749,2.393
				s0.614-1.598-1.534-2.987c-3.21-2.076-4.383-2.308-4.383-2.308L179.949,451.222z"/>
			<path style="fill:#FFB383;" d="M179.949,451.222c0,0,3.638,3.325,7.282,2.131c-1.235-0.737-2.914-1.679-2.914-1.679
				L179.949,451.222z"/>
			<path style="fill:#40B7D6;" d="M185.606,377.297l-8.056,63.44l12.834,2.522c0,0,17.943-68.042,15.558-77.964"/>
			
				<line style="fill:none;stroke:#3D7BA5;stroke-width:0.4252;stroke-miterlimit:10;" x1="178.239" y1="431.912" x2="192.684" y2="434.32"/>
			<polygon style="fill:#FFB383;" points="195.506,312.668 195.868,303.431 203.106,304.057 204.217,312.448 200.924,314.726 			"/>
			<path style="fill:#FFB383;" d="M218.227,398.401c-0.401,14.15-0.232,16.731-3.889,52.966c-1.324,0.043-4.382,0.139-4.382,0.139
				l-5.299-45.117"/>
			<path style="fill:#154059;" d="M209.957,451.506c0,0-0.588,1.912,0.199,3.639c2.552,0.409,11.009,0.275,11.009,0.275
				s0.294-1.687-2.081-2.635c-3.55-1.418-4.745-1.419-4.745-1.419L209.957,451.506z"/>
			<path style="fill:#FFB383;" d="M209.957,451.506c0,0,4.211,2.561,7.556,0.687c-1.354-0.485-3.183-1.086-3.183-1.086
				L209.957,451.506z"/>
			<path style="fill:#40B7D6;" d="M191.174,348.392c0,0-6.236,13.682-6.096,27.269c0.14,13.588,15.078,13.923,15.078,13.923
				l5.424,52.096h13.08c0,0,4.488-70.225,0.235-79.5c-2.433-12.937-6.16-14.989-6.16-14.989S195.75,349.483,191.174,348.392z"/>
			<path style="fill:#F26D76;" d="M203.637,310.431c-2.295,0.006-7.291,1.366-9.487,1.631c-5.699,0.687-9.659,6.002-8.681,11.658
				l4.643,26.853c0,0,15.64,2.65,24.613-2.089c-1.619-10.887-0.715-12.885,0.307-14.747c0.203-0.37,1.042-1.783,1.077-3.719
				c0.01-0.541-0.045-1.048-0.137-1.513c-0.194-0.975-0.66-1.866-1.242-2.672c-0.69-0.954-1.883-3.346-2.164-8.695
				C212.35,313.004,207.778,310.421,203.637,310.431z"/>
			<polyline style="fill:none;stroke:#3D7BA5;stroke-width:0.4252;stroke-miterlimit:10;" points="203.425,423.827 198.977,378.363 
				192.634,378.132 			"/>
			<path style="fill:none;stroke:#3D7BA5;stroke-width:0.4252;stroke-miterlimit:10;" d="M189.212,353.344
				c0,0,8.948,3.161,25.795-2.192"/>
			
				<line style="fill:none;stroke:#3D7BA5;stroke-width:0.4252;stroke-miterlimit:10;" x1="204.556" y1="432.888" x2="219.194" y2="432.466"/>
			<path style="fill:#F26D76;" d="M185.321,320.586c-2.023,10.74-2.825,18.164-2.825,18.164l10.433,2.699L185.321,320.586z"/>
			
				<line style="fill:none;stroke:#ADBCDB;stroke-width:0.4252;stroke-miterlimit:10;" x1="188.329" y1="340.259" x2="185.897" y2="326.194"/>
			
				<line style="fill:none;stroke:#ADBCDB;stroke-width:0.4252;stroke-miterlimit:10;" x1="182.816" y1="336.141" x2="187.948" y2="337.726"/>
			<path style="fill:#FFB383;" d="M192.019,298.324c1.008,7.905,7.978,11.527,14.6,9.047c6.622-2.48-0.713-13.785-2.047-16.574
				C203.239,288.007,190.327,285.061,192.019,298.324z"/>
			<path style="fill:#5E1A1E;" d="M193.809,306.777c3.18,2.366,10.932-0.258,9.955-3.126c-0.977-2.868,2.145-5.606,0.727-8.802
				c2.947-2.328,4.514-5.445-0.984-7.864c-5.498-2.419-12.554-0.134-14.073,5.969C187.917,299.056,189.795,303.791,193.809,306.777z
				"/>
			<path style="fill:#5E1A1E;" d="M203.668,301.5c-0.26,6.543,3.771,5.467,4.888,9.757c-4.024,4.414,3.48,13.309-9.863,16.24
				c-12.036,2.644-19.423,0.851-17.255-7.717c2.708-10.702-3.11-10.935,0.702-17.255c3.812-6.32,2.823-11.628,11.193-14.642"/>
			<path style="fill:#FFB383;" d="M207.675,297.972c1.363-1.005,1.811-0.239,0.801,1.538"/>
			<path style="fill:none;stroke:#0C1153;stroke-width:0.4252;stroke-miterlimit:10;" d="M207.924,301.795
				c0,0,0.741-0.306,1.263-0.589"/>
			<path style="fill:#0C1153;" d="M207.368,296.917c0.19,0.489,0.165,0.955-0.058,1.042c-0.223,0.087-0.557-0.239-0.748-0.727
				c-0.191-0.489-0.165-0.955,0.058-1.042C206.843,296.103,207.178,296.429,207.368,296.917z"/>
			<path style="fill:none;stroke:#6E3134;stroke-width:0.4252;stroke-miterlimit:10;" d="M203.708,288.411
				c0,0,1.204,2.928-2.408,4.609c-3.611,1.681-4.715,3.407-4.514,5.704"/>
			<path style="fill:none;stroke:#6E3134;stroke-width:0.4252;stroke-miterlimit:10;" d="M202.117,287.884
				c0,0-0.114,2.747-3.224,3.879c-3.11,1.132-7.425,0.931-6.321,11.967"/>
			<path style="fill:none;stroke:#6E3134;stroke-width:0.4252;stroke-miterlimit:10;" d="M198.04,288.436
				c0,0-6.761,1.614-7.018,5.945"/>
			<path style="fill:none;stroke:#6E3134;stroke-width:0.4252;stroke-miterlimit:10;" d="M194.678,300.72
				c0,0-1.249,6.019,2.085,9.731c3.334,3.712,3.535,9.318,2.231,10.528"/>
			<path style="fill:none;stroke:#6E3134;stroke-width:0.4252;stroke-miterlimit:10;" d="M187.959,299.315
				c0,0-3.659,5.819-0.927,10.634c2.733,4.815,3.84,8.114,1.731,11.029"/>
			<path style="fill:none;stroke:#6E3134;stroke-width:0.4252;stroke-miterlimit:10;" d="M191.866,310.849c0,0,4.319,7.542,0,11.64"
				/>
			<path style="fill:none;stroke:#6E3134;stroke-width:0.4252;stroke-miterlimit:10;" d="M198.04,304.733
				c0,0,6.854,4.715,5.86,10.534"/>
			<path style="fill:none;stroke:#6E3134;stroke-width:0.4252;stroke-miterlimit:10;" d="M201.502,296.866
				c0,0-2.971,3.648-0.482,7.011"/>
			<path style="fill:none;stroke:#6E3134;stroke-width:0.4252;stroke-miterlimit:10;" d="M184.146,309.079
				c0,0-1.674,14.054,2.825,15.488"/>
			<g>
				<path style="fill:#FFB383;" d="M212.522,347.242l18.305,9.337l-1.5,3.467c0,0-18.679-4.587-22.297-7.354
					c-0.986-0.754-5.876-16.164-7.209-19.882c2.848-0.6,9.951-1.791,12.615-2.728L212.522,347.242z"/>
				<path style="fill:#F26D76;" d="M197.688,329.531l3.649,8.908l11.447,0.346c0,0,0.247-11.778,0.014-15.695"/>
				<path style="fill:none;stroke:#ADBCDB;stroke-width:0.4252;stroke-miterlimit:10;" d="M212.785,338.786
					c0,0,0.247-11.778,0.014-15.695"/>
				
					<line style="fill:none;stroke:#ADBCDB;stroke-width:0.4252;stroke-miterlimit:10;" x1="197.688" y1="329.531" x2="201.337" y2="338.439"/>
				
					<line style="fill:none;stroke:#ADBCDB;stroke-width:0.4252;stroke-miterlimit:10;" x1="212.787" y1="335.958" x2="200.796" y2="336.534"/>
				<g>
					<path style="fill:#FFB383;" d="M232.236,355.727c0,0,5.956,1.399,5.566,2.347c-0.399,1.049-3.7,0.006-3.7,0.006
						s4.047,0.616,3.62,1.733c-0.374,0.976-4.178-0.346-4.178-0.346s3.393,1.138,3.226,1.952c-0.167,0.814-4.006-0.549-4.006-0.549
						s2.619,0.857,2.405,1.684c-0.192,0.742-3.215-0.476-3.585-0.619c-1.695-0.657-4.183-1.966-4.67-3.901
						c-0.466-1.849,1.296-2.809,2.822-3.238"/>
					
						<line style="fill:none;stroke:#0C1153;stroke-width:0.4252;stroke-miterlimit:10;" x1="234.596" y1="361.421" x2="233.15" y2="360.937"/>
					
						<line style="fill:none;stroke:#0C1153;stroke-width:0.4252;stroke-miterlimit:10;" x1="235.419" y1="360.233" x2="233.545" y2="359.467"/>
					
						<line style="fill:none;stroke:#0C1153;stroke-width:0.4252;stroke-miterlimit:10;" x1="236.338" y1="358.527" x2="234.103" y2="358.079"/>
				</g>
				<path style="fill:#FFB383;" d="M229.736,354.796c2.563-0.779,5.087-0.165,4.784,0.848c-0.168,0.562-2.283,0.083-2.283,0.083"/>
				
					<line style="fill:none;stroke:#0C1153;stroke-width:0.4252;stroke-miterlimit:10;" x1="233.511" y1="356.054" x2="231.381" y2="355.557"/>
			</g>
		</g>
		<g>
			<rect x="87.616" y="272.885" style="fill:#F1F7FF;" width="85.153" height="112.222"/>
			<rect x="87.616" y="272.885" style="fill:#40B7D6;" width="85.153" height="12.847"/>
			<rect x="91.983" y="276.996" style="fill:#66C5DE;" width="46.611" height="4.625"/>
			<path style="fill:#E3EFFF;" d="M150.136,279.309c0,1.419-1.15,2.569-2.569,2.569c-1.419,0-2.57-1.15-2.57-2.569
				c0-1.419,1.15-2.569,2.57-2.569C148.986,276.739,150.136,277.889,150.136,279.309z"/>
			<path style="fill:#154059;" d="M159.129,279.309c0,1.419-1.15,2.569-2.57,2.569c-1.419,0-2.569-1.15-2.569-2.569
				c0-1.419,1.15-2.569,2.569-2.569C157.979,276.739,159.129,277.889,159.129,279.309z"/>
			<path style="fill:#FCC130;" d="M168.122,279.309c0,1.419-1.15,2.569-2.57,2.569s-2.569-1.15-2.569-2.569
				c0-1.419,1.15-2.569,2.569-2.569S168.122,277.889,168.122,279.309z"/>
			<g>
				<rect x="96.041" y="295.999" style="fill:none;stroke:#154059;stroke-miterlimit:10;" width="11.356" height="11.356"/>
				<line style="fill:none;stroke:#ADBCDB;stroke-miterlimit:10;" x1="115.191" y1="296.849" x2="163.983" y2="296.849"/>
				<line style="fill:none;stroke:#ADBCDB;stroke-miterlimit:10;" x1="115.191" y1="301.677" x2="163.983" y2="301.677"/>
				<rect x="96.041" y="314.307" style="fill:none;stroke:#154059;stroke-miterlimit:10;" width="11.356" height="11.356"/>
				<line style="fill:none;stroke:#ADBCDB;stroke-miterlimit:10;" x1="115.191" y1="315.157" x2="163.983" y2="315.157"/>
				<line style="fill:none;stroke:#ADBCDB;stroke-miterlimit:10;" x1="115.191" y1="319.985" x2="163.983" y2="319.985"/>
				<rect x="96.041" y="332.615" style="fill:none;stroke:#154059;stroke-miterlimit:10;" width="11.356" height="11.356"/>
				<line style="fill:none;stroke:#ADBCDB;stroke-miterlimit:10;" x1="115.191" y1="333.465" x2="163.983" y2="333.465"/>
				<line style="fill:none;stroke:#ADBCDB;stroke-miterlimit:10;" x1="115.191" y1="338.293" x2="163.983" y2="338.293"/>
				<rect x="96.041" y="350.923" style="fill:none;stroke:#154059;stroke-miterlimit:10;" width="11.356" height="11.356"/>
				<line style="fill:none;stroke:#ADBCDB;stroke-miterlimit:10;" x1="115.191" y1="351.772" x2="163.983" y2="351.772"/>
				<line style="fill:none;stroke:#ADBCDB;stroke-miterlimit:10;" x1="115.191" y1="356.601" x2="163.983" y2="356.601"/>
				<polyline style="fill:none;stroke:#F26D76;stroke-miterlimit:10;" points="98.505,300.726 101.181,302.823 109.863,292.582 				
					"/>
				<polyline style="fill:none;stroke:#F26D76;stroke-miterlimit:10;" points="98.505,318.924 101.181,321.021 109.863,310.78 				
					"/>
				<polyline style="fill:none;stroke:#F26D76;stroke-miterlimit:10;" points="98.505,337.123 101.181,339.22 109.863,328.979 				
					"/>
				<polyline style="fill:none;stroke:#F26D76;stroke-miterlimit:10;" points="98.505,355.321 101.181,357.418 109.863,347.177 				
					"/>
			</g>
		</g>
		<g>
			<rect x="603.961" y="193.757" style="fill:#F1F7FF;" width="85.153" height="112.222"/>
			<rect x="603.961" y="193.757" style="fill:#40B7D6;" width="85.153" height="12.847"/>
			<rect x="608.329" y="197.868" style="fill:#66C5DE;" width="46.611" height="4.625"/>
			<path style="fill:#E3EFFF;" d="M666.482,200.18c0,1.419-1.15,2.57-2.57,2.57c-1.419,0-2.569-1.15-2.569-2.57
				s1.15-2.569,2.569-2.569C665.331,197.611,666.482,198.761,666.482,200.18z"/>
			<path style="fill:#154059;" d="M675.474,200.18c0,1.419-1.15,2.57-2.569,2.57s-2.57-1.15-2.57-2.57s1.15-2.569,2.57-2.569
				S675.474,198.761,675.474,200.18z"/>
			<path style="fill:#FCC130;" d="M684.468,200.18c0,1.419-1.15,2.57-2.569,2.57c-1.419,0-2.57-1.15-2.57-2.57
				s1.15-2.569,2.57-2.569C683.317,197.611,684.468,198.761,684.468,200.18z"/>
			<g>
				<rect x="612.386" y="216.871" style="fill:none;stroke:#154059;stroke-miterlimit:10;" width="11.356" height="11.356"/>
				<line style="fill:none;stroke:#ADBCDB;stroke-miterlimit:10;" x1="631.537" y1="217.721" x2="680.329" y2="217.721"/>
				<line style="fill:none;stroke:#ADBCDB;stroke-miterlimit:10;" x1="631.537" y1="222.549" x2="680.329" y2="222.549"/>
				<rect x="612.386" y="235.179" style="fill:none;stroke:#154059;stroke-miterlimit:10;" width="11.356" height="11.356"/>
				<line style="fill:none;stroke:#ADBCDB;stroke-miterlimit:10;" x1="631.537" y1="236.028" x2="680.329" y2="236.028"/>
				<line style="fill:none;stroke:#ADBCDB;stroke-miterlimit:10;" x1="631.537" y1="240.857" x2="680.329" y2="240.857"/>
				<rect x="612.386" y="253.486" style="fill:none;stroke:#154059;stroke-miterlimit:10;" width="11.356" height="11.356"/>
				<line style="fill:none;stroke:#ADBCDB;stroke-miterlimit:10;" x1="631.537" y1="254.336" x2="680.329" y2="254.336"/>
				<line style="fill:none;stroke:#ADBCDB;stroke-miterlimit:10;" x1="631.537" y1="259.164" x2="680.329" y2="259.164"/>
				<rect x="612.386" y="271.794" style="fill:none;stroke:#154059;stroke-miterlimit:10;" width="11.356" height="11.356"/>
				<line style="fill:none;stroke:#ADBCDB;stroke-miterlimit:10;" x1="631.537" y1="272.644" x2="680.329" y2="272.644"/>
				<line style="fill:none;stroke:#ADBCDB;stroke-miterlimit:10;" x1="631.537" y1="277.472" x2="680.329" y2="277.472"/>
				<polyline style="fill:none;stroke:#F26D76;stroke-miterlimit:10;" points="614.85,221.598 617.526,223.694 626.209,213.454 				
					"/>
				<polyline style="fill:none;stroke:#F26D76;stroke-miterlimit:10;" points="614.85,239.796 617.526,241.893 626.209,231.652 				
					"/>
				<polyline style="fill:none;stroke:#F26D76;stroke-miterlimit:10;" points="614.85,257.995 617.526,260.091 626.209,249.85 				
					"/>
				<polyline style="fill:none;stroke:#F26D76;stroke-miterlimit:10;" points="614.85,276.193 617.526,278.289 626.209,268.049 				
					"/>
			</g>
		</g>
	</g>
</g>
</svg>
